<?xml version="1.0" encoding="utf-8"?>
<!-- Generator: Adobe Illustrator 26.0.1, SVG Export Plug-In . SVG Version: 6.00 Build 0)  -->
<svg version="1.1" id="Layer_1" xmlns="http://www.w3.org/2000/svg" xmlns:xlink="http://www.w3.org/1999/xlink" x="0px" y="0px"
	 viewBox="0 0 613.1 475" style="enable-background:new 0 0 613.1 475;" xml:space="preserve">
<style type="text/css">
	.st0{fill:#010A38;}
</style>
<g id="OBJECTS">
	<path class="st0" d="M369.1,64c-37-11.1-72.1,19.5-76.9,55.7c-5.1,37.9,26.5,65.7,62.4,68.7c34.8,3,69.5-21.8,73.4-57.5
		C432,93.4,403.8,68.3,369.1,64z M296.6,120.6c4.6-35.9,35.1-57.7,69.7-54.4c0.2,0.3,0.5,0.5,0.8,0.5c16.1,2.7,30.7,9.2,41.1,19.5
		C377.7,69,336,65.9,315.4,100c-14.5,24.1-8.7,58.1,12.1,76.1C307.4,165.6,293.4,145.6,296.6,120.6z M361.4,184.4
		c-8.5,0.1-16.9-1.4-24.9-4.2c-26.6-17.6-34.9-57.7-14.8-83.6c23.4-30.2,64.1-21.8,91.8-3.4c0.2,0.2,0.5,0.2,0.8,0.2
		c6.2,8.8,9.8,19.7,9.6,32.6C423.4,158.8,393,184.1,361.4,184.4L361.4,184.4z"/>
	<path class="st0" d="M459.5,108.7c-7.5-23.5-27.9-40-49.7-50c-0.1-0.1-0.3-0.1-0.4-0.1c0.3-0.6,0.7-1.2,0.9-1.8
		c0.1,0,0.1,0.1,0.2,0.1c13.8,3.9,26.7-6.3,26.3-20.9c-0.5-17.7-17.1-27.9-32.4-32c-14.6-4-39.2-8.1-50.5,5.2
		c-9.9,11.6-4.4,27.3,8.7,32.6c-0.4,1.1-0.6,2.3-0.7,3.5c-2.1-0.1-4.3-0.2-6.5-0.2c-0.5,0-0.8,0.3-0.9,0.8c0,0,0,0,0,0l0,0
		c-30.6-0.7-61.1,15.9-76,43c-15.7,28.5-11,66.1,10.1,90.6c4.1,4.8,8.7,9,13.8,12.6c-0.1,0.3,0,0.5,0.3,0.7c1.8,1.1,3.5,2,5.4,3
		c4.9,2.9,10.1,5.3,15.5,7.2c42.7,16.6,94.4,13.1,123.8-26.6C461.5,157.2,466.8,131.3,459.5,108.7z M455.8,109.7
		c1,3.3,1.8,6.7,2.3,10.1c-4.3-1.9-8.9-3.5-13.5-4.6c-1.1-7.3-3.3-14.3-6.4-21c4.3,1.6,8.6,3.2,12.9,4.8
		C453.1,102.3,454.7,105.9,455.8,109.7z M449.5,95.9c-4.1-1.4-8.2-2.8-12.4-4.2c-5.1-9.9-12.2-18.6-20.9-25.6
		C429.3,73.8,441.5,83.2,449.5,95.9L449.5,95.9z M367.4,34.9c-7.2-10.8-6.7-17.8,1.4-21.1c3.1-2.5,7.1-3.7,11.1-3.4
		c5.5-0.2,11.9,1.3,17.3,2.7c9.6,2.6,17.9,6.5,24.4,13.8c-0.1,0.4,0,0.7,0.2,1c3.6,3.9,5.2,9.9,2.5,14.8c-2.6,4.6-7.7,6.2-12.6,6
		C409.4,33.5,379.9,25.3,367.4,34.9z M406.4,58.5c-1.3-0.6-2.6-1.3-3.7-2.2c-0.4-0.3-1-0.3-1.3,0c-11.4-6-23.9-9.7-36.8-10.9
		c5.9-20.8,51-9.2,41.8,11.5C406.1,57.4,406.1,58,406.4,58.5z M354.4,14.2c6-7.3,13.5-10.7,22.4-10.2c8.3-0.3,16.5,0.6,24.5,2.6
		c8.8,2.2,17.8,5.6,24.1,12.5c10.7,11.5,10.3,40.6-13.9,34.3l0,0c0.2-1.1,0.3-2.2,0.3-3.4c6,1.8,12.4-0.8,15.4-6.3
		c2.5-4.8,2-10.6-1.3-14.9c0.1-0.3,0-0.7-0.2-1C416.1,12.5,389,3,371.7,8.5c-12.4,4-19.6,21.1-5.9,27.9c-1,1-1.8,2.2-2.4,3.5
		C354,35.2,351,26.6,354.4,14.2z M274.6,109.8c8.8-40.5,49.5-63.3,88.8-60.7c0.6,0.1,1.2-0.4,1.3-1c0,0,0,0,0,0c0-0.1,0-0.2,0-0.3
		c42.1,6.6,81.5,38.5,77,85.2c-4.9,50.3-56.6,78.5-103.2,69.4C294.9,194,264.9,154.2,274.6,109.8z M352.1,207.8
		c11.6,0.2,23.2-1.6,34.2-5.3c2.1,1.4,4.3,2.9,6.5,4.3C379.4,209.6,365.6,209.9,352.1,207.8L352.1,207.8z M395.1,206.3
		c-2.4-1.5-4.7-2.9-7.1-4.3c6.4-2.2,12.5-5.1,18.3-8.6c0,0.1,0.1,0.3,0.2,0.4c2.2,2.1,4.6,4.1,7.1,5.9
		C407.7,202.6,401.5,204.8,395.1,206.3L395.1,206.3z M440.3,179.2c-7,8-15.4,14.6-24.9,19.5c-2.5-2.2-5.2-4.2-8-6
		c6.2-3.8,11.9-8.4,16.9-13.6c1.9,2.6,4.4,4.7,7.3,6c0.5,0.4,1.3,0.3,1.7-0.2c0.4-0.5,0.3-1.2-0.2-1.6c-0.2-0.1-0.4-0.2-0.6-0.2
		c-2.8-1-5.2-2.7-7.1-5c5.4-5.8,9.9-12.4,13.3-19.5l0,0c3.3,2.9,6.8,5.7,10.2,8.4C446.5,171.2,443.6,175.4,440.3,179.2L440.3,179.2z
		 M450.3,164.6c-3.4-2.5-7-5-10.6-7.3c-0.1-0.1-0.2-0.1-0.4-0.1c2.8-6.4,4.7-13.2,5.6-20.2c1.9,0.9,3.8,1.8,5.6,2.8
		c2.4,1.2,4.6,2.8,7,3.9C456.2,151,453.7,158.1,450.3,164.6L450.3,164.6z M458.1,141.4c-4-2.6-8.3-4.5-12.9-5.8
		c0.6-5.6,0.6-11.2,0-16.8c-0.1-0.8-0.2-1.5-0.3-2.3c4.7,1.6,9.3,3.7,13.6,6C459.2,128.8,459,135.2,458.1,141.4L458.1,141.4z"/>
	<path class="st0" d="M403.1,158.2c-6.9-11.6-16.2-21.7-27.3-29.4c-0.9-4.7-3.9-8.3-8.8-7.3c-1.1-0.3-2.3-0.3-3.4-0.2l-0.1-0.1
		c-11.8-5.6-23.5-11.1-35.2-16.7c-1.1-0.5-2.8,0.7-1.9,1.8c7.9,10.5,16.3,20.6,25.2,30.2c0.5,0.5,1.4-0.2,1-0.8
		c-6.2-9.1-13-17.8-20.1-26.3l27.4,12.9c-3.3,1.6-5.8,4.4-6.9,7.9c-1.8,6.6,2.3,14.1,9.2,15.3c0.7,0.1,1.5,0.2,2.3,0.2l0,0
		c12.2,5.2,24.6,9.8,36.9,14.8C402.6,161.1,403.8,159.4,403.1,158.2z M397.7,155.7c-9.7-3.8-19.4-7.5-29.4-10.6
		c4.8-1.9,7.3-7.1,7.6-12.2C384.5,139.2,391.8,146.9,397.7,155.7z M360.1,141.2c-3.9-2.3-5-7.7-3-11.6s5.4-5.1,9.2-5.9
		c0.1,0.1,0.3,0.1,0.4,0.1C378.4,123.1,372.8,148.8,360.1,141.2z"/>
	<path class="st0" d="M232.4,199.4c-6.4-25-16.5-53.5-37.1-70.4c-14.5-11.9-35.7-17.6-53-8.5c-8,4.3-14.5,11.1-18.4,19.4
		c-22.8-33.4-68.3-24.9-94.7-0.3c-29.8,27.7-41,74.4-13.3,107.4l0,0c-6.1,32.9,1.4,69.1,9.4,100.7c0.7,2.8,1.5,5.6,2.2,8.5
		c-13.7-0.9-19.1,14.6-17.4,25.9c0.6,4,1.4,13.5,6.2,14.7c1.5,0.4,3.3-0.2,5-0.9c1.9,21.5,13.4,87,48.2,63c9.3,8.1,21.3,7.6,36,2.6
		c2.6,4.8,6.1,8.8,11,10.9c15.5,6.7,37.7-0.8,52.8-4.9c15.5-4.2,40.7-9,50.8-23.1c4.1-5.8,5.1-13.4,4.6-21.6
		c0.3,0.2,0.7,0.3,1.1,0.3c14.9,0.5,22.8-6.1,26.3-16.3c0.3,0.2,0.6,0.2,0.9,0.2c12.2-1.4,21.4-10.8,21.1-23.4
		c-0.2-10.1-4.5-20.7-7.1-30.4c-3.7-13.7-7.2-27.5-12-40.9l0,0c1.6-0.5,3-1.3,4.3-2.4c3.3-3.5-0.9-9.1-2.8-12.3
		c-4.1-6.7-10.7-12.6-18.1-14.3c0.1-0.2,0.2-0.4,0.3-0.7C241.5,254.7,239.5,226.5,232.4,199.4z M151.9,120.6
		c20.6-5.1,38.5,6.6,50.9,22c-25.5-4.7-50.3,10.8-57.4,35.7c-8.3-3.2-16.9-5.4-25.7-6.4C120.3,150.8,129,126.2,151.9,120.6z
		 M172.7,152.2c17.4,7.8,20.5,28.5,24.7,45.2c3.1,12.4,5.6,24.8,8.1,37.3c-11.5-20-26.4-37.5-47.1-49.9c-3.5-2.1-7.1-3.9-10.8-5.5
		c5.2-13.3,14-23,25.1-28.4c-0.4,0.2-0.5,0.7-0.3,1.1c0,0,0,0,0,0C172.5,152,172.6,152.1,172.7,152.2L172.7,152.2z M96.3,124.1
		c9.7,3,18.5,9.2,25.4,19.5c0.1,0.1,0.2,0.3,0.4,0.4c-3.4,8.8-4.9,18.3-4.2,27.8c-2-0.2-4-0.3-6-0.4c0.1-0.2,0.2-0.4,0.2-0.6
		c0.2-9.8-1.1-20.9-10.2-26.6c-10.1-6.2-21.9-2.7-32.2,1.5c7.9-7.7,16.1-14,26.4-18.8c0.8-0.5,1-1.5,0.5-2.3
		C96.5,124.3,96.4,124.2,96.3,124.1L96.3,124.1z M93.8,172.1c-2.1,0.3-4.2,0.6-6.3,1c-2.9-5.3-8-9-13.9-10.2
		c5.4-1.8,10.9-3.3,16.5-4.5c0,0.2,0,0.3,0.1,0.5C91.7,163.2,92.9,167.6,93.8,172.1L93.8,172.1z M70.6,164.1
		c5.8,1.5,10.1,4.9,13.6,9.8c-8.1,1.9-16,4.7-23.3,8.6c-1-2.1-1.9-4.2-2.6-6.5c-0.6-2-0.9-4.1-1.4-6.1
		C61.3,167.7,65.9,165.8,70.6,164.1L70.6,164.1z M42.6,176c-0.7-2.7-0.6-5.5,0.2-8.1c3.7-9.7,14-13.2,22.6-16.9
		c7.3-3.1,13.8-5.8,21.9-6.2c8.8-0.4,14.1,3,17.4,8.4h-0.3C81.8,155.3,60.9,162.6,42.6,176L42.6,176z M59.3,183.3
		c-3.8,2.1-7.4,4.5-10.8,7.1c-1.8-3.5-4.2-8.2-5.5-12.8c3.7-2.3,7.4-4.5,11.2-6.4C54.8,175.6,56.5,179.7,59.3,183.3L59.3,183.3z
		 M93,158.1C93,158.1,93,158,93,158.1c3.8-0.8,7.6-1.3,11.5-1.7c0.6,0,1.1-0.4,1.3-1c2.1,4.4,3.1,9.9,3.4,15.4c0,0.2,0,0.3,0.1,0.5
		c-4.6-0.1-9.3,0.2-13.9,0.7C95.6,167.2,94.8,162.5,93,158.1L93,158.1z M27,147.5c17.1-18.5,44.6-30.1,67.7-23.8h-0.1
		C83,128.6,72,136.8,65,147.4l-0.6,0.2c-8.4,3.6-19.4,7-23.7,15.9c-2,4.4-2.3,9.5-0.9,14.1l-0.1,0.1c-3.7,6.8-5.5,15.7-2.4,23
		c-0.9,1.1-1.8,2.2-2.7,3.3c-9,11.8-15.2,25.5-18.1,40C-3.9,213.1,2.2,174.3,27,147.5L27,147.5z M46.9,191.6c-3,2.5-5.9,5.2-8.5,8.1
		c-0.3-6.5,0-12.5,2.7-18.4C42.6,185,44.6,188.4,46.9,191.6L46.9,191.6z M19.3,391.9c-1.9,1.4-2.8,1.1-2.8-1c-1-1.3-1.4-4.5-1.7-6
		c-2.4-10.6-0.1-24.8,13.2-26c0.1,0,0.1,0,0.2,0c2.4,9,5.1,18,8,26.9c-4.4,1.8-8.9,3.6-13.4,5.1L19.3,391.9L19.3,391.9z M22.6,395.3
		c0.9-0.4,1.8-0.8,2.5-1.1c4.2-1.5,8.2-3.2,12.3-5c6.4,19.5,14,38.6,23,57.1c1.7,3.6,4,7,6.6,10C33.8,473.9,28.7,415.5,22.6,395.3
		L22.6,395.3z M220.1,431.8c-3.2,19.9-29.9,25.5-46.4,30.4c-14.1,4.2-30.2,9.1-45,8.6c-22.1-0.8-25-27.6-31.1-44.7
		c39.3-12,78-26,116.5-40.1C216.5,400.1,222.3,417.8,220.1,431.8z M225.6,418.8c-0.4,0-0.9,0.1-1.2,0.4c-1.3-12.4-5.2-25.4-6.7-34.5
		l3-1.1c1.1-0.3,1.7-1.5,1.4-2.6c-4-11.4-9.4-25.4-22.3-28.9c-17.5-4.8-42.3,7-58.5,12.5c-16.6,5.7-40.3,11.5-53.3,24.3
		c-10.3,10.1-7.7,23.5-2.7,35.5c0.2,0.6,0.8,0.9,1.4,0.7c0.6-0.2,0.9-0.8,0.7-1.4c-4.1-15.3-5.2-28.5,11.3-37.6
		c11-6.1,23.5-10.5,35.2-14.8c12.1-4.4,24.4-8.2,36.8-11.4c15.6-4.1,31-8.4,41,7.8c3.4,5.5,6.4,9.4,2,14c-2.4,2.4-13.8,5-17,6.1
		c-11.3,4-22.7,8-34.1,11.9c-24.6,8.5-49.5,16.4-74.1,25c-2.5,0.9-1.3,4.7,1.2,3.9c2-0.6,3.9-1.2,5.9-1.8c2.2,8.9,3.7,22.1,8.5,32.3
		c-12.8,3.1-23.7,3.7-32.2-3.6c-0.2-0.4-0.5-0.7-0.9-0.9c-2.9-2.9-5.3-6.2-7-9.9c-6.6-13.9-12.5-28-17.7-42.5
		c-10.1-27.1-17.9-55-23.6-83.4c-10.7-55-5.2-122.4,58.7-139.6c59.8-16.1,106.9,25.1,130,77c11.5,25.8,18.5,53.4,26.3,80.5
		C244,358,267.9,419.7,225.6,418.8L225.6,418.8z M264,357c4.5,17.1,13.3,40.5-10.9,46.3c5.9-25-10-67.1-15.9-85.8
		c4.6-0.9,9.1-2.2,13.4-3.9c0.8-0.3,1.8-0.6,2.8-0.9C256,327.7,260.1,342.3,264,357z M253.4,299.5c0.8,1.4,2.2,3.1,2.6,4.7
		c1.1,4.7-2.6,4.9-6.2,6.5c-4.3,1.8-8.7,3.3-13.1,4.9c-0.2-0.6-0.4-1.3-0.6-1.9c-2.5-8.6-5.1-17.3-7.9-26
		C238.4,283.7,248,290.7,253.4,299.5L253.4,299.5z M234.8,282.2c0,0.2,0,0.4,0.1,0.6c-2.7-0.1-5.5,0.3-8,1.4
		c-4.6-14.1-10.3-27.9-16.9-41.1c0.2-0.3,0.3-0.6,0.2-0.9c-3-21.2-7.8-42.2-14.2-62.7c-4.1-13.1-9-24.6-22.9-28.8
		c-0.2-0.1-0.3,0-0.5,0.1c9.6-4.7,20.8-6.2,33-4.1h0.1c2.4,3.3,4.6,6.8,6.5,10.3C232.6,195.1,237.8,239.7,234.8,282.2L234.8,282.2z"
		/>
	<path class="st0" d="M207.4,261.1c0.3-0.5,0.1-1.1-0.4-1.3c0,0,0,0,0,0c-0.2-0.1-0.4-0.1-0.6-0.1c-0.8,0-1.5,0.2-2.2,0.3
		c0.1-0.3,0.1-0.5,0-0.8c-12.4-50.2-61.1-83.8-112.8-73.9C38.6,195.4,13,258.7,33.1,306.3c0.1,0.1,0.2,0.2,0.3,0.1c0,0,0,0,0,0
		c0.1,0,0.2-0.2,0.1-0.3c-12.4-49.3,3.1-109.4,60.7-118.6c49.6-7.9,95.1,24.5,107,72.5c0,0.1,0.1,0.2,0.1,0.3
		c-1.5,0.3-3,0.6-4.6,0.9c-0.7,0.1-0.4,1.2,0.2,1.2c3.1,0.1,6.2-0.1,9.3-0.4c0.1,0,0.3-0.1,0.4-0.1c-0.1,0.3-0.1,0.5-0.1,0.8
		c0.5,2.7,1.1,5.5,1.6,8.2c0.3,1.7,1.4,4.4-0.2,5.9c-1,0.5-2.1,0.9-3.2,1c-2,0.3-2,0.1-2.8-1.7c-0.4-1.3-0.7-2.6-0.9-3.9
		c-0.7-3-1.5-6.1-2.4-9.1c-0.2-0.9-1.7-0.7-1.6,0.3c0.7,4.8,1.2,10.1,2.7,14.8c1,3.2,3,3.1,5.9,2.2c2.6-0.8,6.2-1.2,6.3-4.5
		c0.1-1.8-0.7-4-1.1-5.8c-0.5-2.7-1-5.5-1.6-8.2c-0.1-0.7-0.8-1.1-1.4-0.9C207.7,260.9,207.6,261,207.4,261.1z"/>
	<path class="st0" d="M71.4,251.3c0-0.5-0.2-1.1-0.9-1c-9.5,1.6-17.1,9.5-15.9,19.5c1.1,9.3,9.3,16.7,18.8,15.5
		C84.2,284,89.3,274,88,263.9C87,256.2,79.3,247.4,71.4,251.3z M69.4,281.2c-6.1-1-10.5-6.9-10.8-13c-0.3-6.9,4.7-12.8,10.8-15.4
		c-0.3,0.4-0.2,1.1,0.2,1.4c0.3,0.2,0.7,0.3,1,0.1C87.9,248.7,89.1,284.6,69.4,281.2L69.4,281.2z"/>
	<path class="st0" d="M176.6,300.5c-5.3-10.3-11.9-20-19.5-28.7c-0.6-0.6-1.6-0.7-2.2-0.1c0,0,0,0,0,0l-0.1,0.1
		c-0.5-0.2-1.1-0.2-1.6,0.1c-22.7,11.9-44.6,25.2-65.6,39.8c-0.6,0.4-0.8,1.1-0.4,1.7s1.1,0.8,1.7,0.4c22-13.1,43.9-26.2,66.3-38.6
		l0.1-0.1c4.8,6,16.7,19.1,14.7,25.3c-2.1,6.4-23,14.6-29.2,18.5c-4.6,2.9-9.2,5.9-13.7,8.9c-3.2,2.2-9.4,8.7-13.4,9.4
		c-11.1,2-21.5-16.5-27-24.3c-0.3-0.5-1-0.6-1.4-0.3c-0.5,0.3-0.6,1-0.3,1.4l0,0c5.9,12,13.9,21.1,24.1,29.6
		c0.7,0.6,1.7,0.7,2.4,0.2c20.5-15.1,42.1-28.7,64.6-40.6C176.9,302.6,177.2,301.4,176.6,300.5z"/>
	<path class="st0" d="M144.1,218.3l-23.1-1c-3.1-0.1-7.4-1.3-9.9,1c-3.5,3.2-3.6,12.2-4,16.3c-0.6,5.9-0.5,11.8,0.2,17.6
		c0.2,1.1,1.2,1.8,2.3,1.7c0.4,0,0.7-0.2,1-0.4c0.2,0.1,0.3,0.2,0.5,0.2c6.1,0.2,12.2,0.1,18.3,0.1c2.9,0,9.1,1.1,11.7-1
		s1.8-8,2.1-10.7c0.9-7.2,1.8-14.4,2.6-21.6c0.2-1-0.5-2-1.5-2.2c0,0,0,0,0,0C144.3,218.3,144.2,218.3,144.1,218.3z M140.6,234.7
		c-0.3,2.7,0,13.2-1.7,15s-10,0.8-12.5,0.9c-5.1,0.2-10.2,0.5-15.2,0.9H111c-0.4-4.1-0.6-8.1-0.5-12.2c0.2-3.8,0.3-13.5,3.1-16.8
		c1.9-2.2,2.8-1.6,5.9-1.5l8.2,0.3l14.4,0.6C141.6,226.2,141.1,230.4,140.6,234.7z"/>
</g>
<path class="st0" d="M455.2,325.4c-18.2,4-29.6,22.1-25.6,40.2c0,0.1,0.1,0.3,0.1,0.4c4.3,17.9,22.2,28.9,40.1,24.7
	c0.6-0.1,1.1-0.3,1.7-0.5c0.3,0.1,0.6,0.1,0.9,0C511.7,376.6,496.4,315.9,455.2,325.4z M433.4,366.8c-5.4-17.5,6.7-35.1,24.2-38.3
	c6.4-1.1,13-0.1,18.7,3c-18.2-4.3-37.5,6-39.8,25.8c-1.6,13,6,25.4,18.3,29.9C444.6,384.7,436.4,376.9,433.4,366.8z M471.6,387.6
	c-0.2,0.1-0.5,0.3-0.6,0.5c-0.5,0-1.1,0.1-1.6,0.2c0.1-0.2-0.1-0.5-0.3-0.5c0,0-0.1,0-0.1,0c-17.2,1-32.1-12.3-29.9-30.1
	c2.3-19.1,21.3-28.4,38.7-23.2c0.6,0.2,1.2-0.1,1.4-0.7c0-0.1,0-0.2,0.1-0.3c5.4,3.7,9.4,8.9,11.6,15.1
	C496.4,364.7,487.1,381.2,471.6,387.6L471.6,387.6z"/>
<path class="st0" d="M580,318.5c-6.6-20.4-14.4-44.8-27.1-62.2c-12-16.4-29.5-7.4-45.2-1.4c-37.8,14-74.9,30-111.1,47.8l-3.7-6
	c-0.3-0.6-1.1-0.8-1.6-0.4c0,0,0,0,0,0c-6,2.7-12,5.5-17.9,8.3c-3.8,1.8-11.1,3.8-14.1,6.9c-4.2,4.4,0.7,7.8,5.1,8.5
	c0.1,0,0.2,0,0.3,0c-6.2,3.6-12.3,7.3-18.3,11.1c-0.9-0.7-2.2-0.5-2.9,0.4c-0.2,0.2-0.3,0.4-0.3,0.7c-2,7-0.5,11.7,2.2,18.5
	c5.5,13.8,12.2,27.3,18.7,40.8c5.6,11.6,11.4,23.2,17.3,34.7c4,7.8,7.7,18.1,15.3,23.3c16,11.1,43.5-6,58.7-12.2
	c22.3-9.4,44.3-19.7,66-30.9c11.5-6,22.9-12.2,34.1-18.7c9.4-5.4,21.1-10.7,29-18.1C597.1,357.7,584.4,332,580,318.5z M562.3,285.4
	c1.3,2.8,2.6,5.6,3.9,8.5h-0.3c-19.5,10.2-39.4,19.3-59.4,28.4c-1,0.4-0.3,2,0.7,1.7c20.8-7.5,40.9-16.5,60.3-27.1
	c6.4,13.9,11.3,28.4,14.5,43.4c-23.6,10.4-46.4,22.6-68.1,36.5c6.2-12.3,6.3-26.7,0.3-39c-3.5-7.6-8.8-14.4-15.3-19.7
	c20.7-11.2,41.2-22.3,62.8-31.9c0.3-0.2,0.5-0.4,0.6-0.7L562.3,285.4z M507.7,380.7L507.7,380.7c-1.7-0.4-3.3-0.8-5.1-1.1
	c2.4-4.8,3.9-10,4.6-15.3c1.7,0,3.5,0.2,5.1,0c0.3,0,0.5-0.1,0.7-0.3c0.9,0.2,1.7,0.4,2.6,0.7l0,0c-1.1,5.5-3.5,10.6-6.8,15.1
	L507.7,380.7z M507.7,356.4c-0.1-3.2-0.6-6.4-1.3-9.6c2.7-0.5,5.3-1.2,8-2.1c1.9,5.7,2.5,11.8,1.7,17.9l0,0c-2.7,0-5.5-0.2-8.2-0.5
	c-0.1,0-0.2,0-0.3,0C507.7,360.2,507.8,358.3,507.7,356.4z M505.9,345.1c-1.5-5.3-3.8-10.4-6.9-14.9l1-0.6l1.4-0.8
	c0.8,1.3,3.2,0,2.6-1.6c-1-2.3-4.1,0-5.9,1.6c-2.6-3.5-5.7-6.7-9.2-9.5l2-1c0.3,0.4,0.9,0.5,1.2,0.2l0,0l1.8-1.4
	c9.2,6,16.2,14.9,19.8,25.3l0,0C511,343.1,508.5,344,505.9,345.1z M487.3,318.2c-6-4.4-12.8-7.6-20.1-9.2c8.5,0.2,16.9,2.5,24.4,6.7
	L487.3,318.2z M503.3,354.4c2,24.6-16.3,47.4-41.7,48.3c-24.2,0.9-43.7-19.8-43.4-43.6c0.4-21,14.2-37.5,32.4-45.7
	c3.7-0.7,7.5-1.2,11.3-1.5C483.6,315.9,501.5,331.2,503.3,354.4z M501.9,381c1.6,0.5,3.3,1,4.9,1.4c-5,5.8-11.1,10.5-17.9,14.1
	C494.4,392.2,498.8,387,501.9,381z M389.9,299.6c2.3,0.3,3.6,2.1,4.8,4.1c-1.9,1-3.8,2-5.7,3c-0.7-0.7-1.4-1.3-2-1.9
	c-1.1-1-2.2-1.9-3.4-2.7c1.9-1.3,4-2.1,6.3-2.4V299.6z M379.7,304.3c0.6-0.3,1.5-0.8,2.6-1.4c1.2,1,2.4,2,3.5,3.2
	c0.5,0.5,1,1,1.4,1.6c-3.1,1.6-6.2,3.3-9.3,5.1c-1.4-1.9-3-3.6-4.6-5.3L379.7,304.3z M369.5,309.1l2.6-1.3c1.2,2,2.6,3.9,4,5.7
	l-4.5,2.6c-2.1-1.5-3.7-3.5-4.6-5.8l0,0L369.5,309.1z M366,310.7c0.6,2.5,2,4.7,4,6.4c-1.6,0.9-3.3,1.8-4.9,2.8
	c0.2-0.3,0.2-0.7-0.1-0.9c-0.1-0.1-0.1-0.1-0.2-0.1c-7.6-2.9-2.8-6.1,1.2-8L366,310.7z M363.8,379.5c-6.2-12.4-19.8-33.2-16.6-46.1
	c0-0.1,0-0.2,0-0.3c45.9-21.4,90.6-45,137.7-64.1c11.8-4.8,24.9-11.8,37.5-14.5c9.9-2.2,22.6-2,28.4,7.7c2.6,4.2,4.5,8.7,6.7,13.1
	l3.6,7.7c-0.2-0.1-0.5-0.1-0.7,0c-22,8.8-42.9,20.1-62.3,33.9c-0.1,0.1-0.2,0.2-0.2,0.3c-16.4-12.8-39.4-15.9-58-3.3
	c-0.2,0.1-0.3,0.4-0.2,0.6c-1,0.5-2,0.9-2.9,1.4c-0.3,0.2-0.4,0.5-0.3,0.8c-12.8,8.5-19.6,23.2-20.7,38.3c-0.3-0.1-0.6-0.1-0.9,0
	C397.8,362.8,380.5,370.8,363.8,379.5z M364.4,380.8v-0.1c17.3-7.2,34.4-15.3,51.3-23.4c-0.1,2.6,0,5.3,0.3,7.9
	c-0.3-0.1-0.7-0.1-1.1,0c-16,6.9-31.6,14.7-47.1,22.7C366.8,385.6,365.6,383.2,364.4,380.8L364.4,380.8z M381.6,415.6
	c-4.4-8.7-8.8-17.5-13-26.3c16.1-6.8,32.2-13.8,47.8-21.7c2.7,18.3,14.2,34.6,34.1,38.3c-20.8,7.3-41.1,15.9-60.7,25.8
	C386.7,426.5,384.2,420.7,381.6,415.6z M552.8,383.5c-10.4,6-21,11.8-31.7,17.4c-22.8,11.9-46.1,22.7-69.9,32.5
	c-10.8,4.4-22,9.6-33.2,12.8c-13.4,3.7-21.3-3.2-27.1-12.5c22.3-9.8,44.8-18.7,67.8-26.9c1.7,0,3.4,0,5.1-0.2c3.4-0.3,6.8-1,10-2
	c0.2,0.1,0.4,0.1,0.5,0c14.2-2.2,27-9.9,35.6-21.4c0.5-0.1,0.9-0.6,0.8-1.1c0.5-0.7,1-1.5,1.5-2.3c23.3-12.4,46.5-24.9,70.5-36
	c0.3,1.6,0.5,3.2,0.7,4.8C585.6,368.6,566.8,375.4,552.8,383.5z"/>
<path class="st0" d="M540.2,259.8c-3.5-3.8-7.7-0.6-11.5,1.4l-12.8,6.5c-1.5,0.6-2.9,1.3-4.3,2.1c-0.4-0.1-0.9,0.1-1,0.6
	c0,0.2,0,0.3,0,0.5l0,0c-0.2,0.3-0.4,0.7-0.5,1c-0.2,0.8,0.3,1.7,1.1,1.9h0.4c1.4,3.9,3.4,7.6,5.8,11c0.5,0.8,1.5,1,2.3,0.6
	c4.4-2.4,8.6-4.9,13-7.4c3-1.7,7.7-3.5,10.2-6C546.1,268.8,542.9,262.7,540.2,259.8z M537.8,271.1c-1.9,1.4-3.8,2.5-5.9,3.4
	c-4.2,2.6-8.5,4.9-12.8,7.4c-2.3-2.7-4.2-5.7-5.7-8.9c0,0,0,0,0-0.2v-0.4c0-0.1,0-0.2,0-0.3c2.6-2.1,9.4-4.5,11.3-5.5
	c4-2,10.4-7.5,13.6-2.6c0.8,1,1.2,2.4,1,3.7C540.4,269.7,539.7,270.8,537.8,271.1z"/>
</svg>
