<svg xmlns="http://www.w3.org/2000/svg" viewBox="0 0 300 300"><defs><style>.cls-1{isolation:isolate;}.cls-2{fill:#ccc;mix-blend-mode:multiply;}.cls-3{fill:#fff;}.cls-4{fill:#2c3d4d;}.cls-5{fill:#489ce2;}.cls-6{fill:#f58e95;}</style></defs><g class="cls-1"><g id="Layer_1" data-name="Layer 1"><path class="cls-2" d="M252,217.22a34.4,34.4,0,0,0,8.59-16.17l19.62-88.33a34.71,34.71,0,0,0-26.33-41.36l-11.32-2.52a15.1,15.1,0,0,0-8.59-5.37l-19-4.22-.41-.08A17.37,17.37,0,0,0,201,42.29l-40.45-9a17.37,17.37,0,0,0-19.64,10A15.08,15.08,0,0,0,137.36,42l-19-4.21A15.09,15.09,0,0,0,108.31,39l-8-1.78A34.7,34.7,0,0,0,58.94,63.59L39.32,151.92a34.43,34.43,0,0,0,2.58,22.45,25.71,25.71,0,0,0-6.41,2.28,22.21,22.21,0,0,0-11.64,14.77,19.25,19.25,0,0,0-.41,2.75A25.62,25.62,0,0,0,15,208.32a22,22,0,0,0,1.3,14.13,19.7,19.7,0,0,0,13.8,10.88A20.94,20.94,0,0,0,46,231a14.78,14.78,0,0,0,4.66,2,14.13,14.13,0,0,0,4.88.21,14.48,14.48,0,0,0,3.59,1.37,14.3,14.3,0,0,0,7.06-.23,14.57,14.57,0,0,0,2.89,1,14.6,14.6,0,0,0,10,7.14,15.05,15.05,0,0,0,7.6-.34,19.33,19.33,0,0,0,3,1,19.13,19.13,0,0,0,12.66-1.6,16.69,16.69,0,0,0,13,12.14,17.1,17.1,0,0,0,13.48-2.91,18.08,18.08,0,0,0,12.17-2.81c1.24,6.81,5.39,12.61,13.54,14.42,5.67,1.26,11.59-.68,16.19-5.12.37-.11.72-.23,1.07-.37a16.41,16.41,0,0,0,8.68,5.06l.28.06a16.35,16.35,0,0,0,9.92,7,15.09,15.09,0,0,0,11.1-1.89,17.67,17.67,0,0,0,6.4-.56,19.62,19.62,0,0,0,9.47,5,18.25,18.25,0,0,0,4,.43,17.07,17.07,0,0,0,10.84,7.71c6.95,1.55,14-1.57,18.84-8.34a9.4,9.4,0,0,0,.57-.88l.06-.09c.18-.29.34-.59.49-.89a13.68,13.68,0,0,0-2-15.18A91.37,91.37,0,0,1,259,238.83a12.25,12.25,0,0,0,1.29-2.25l.14-.31a12.74,12.74,0,0,0,.78-2.38A14.13,14.13,0,0,0,252,217.22Zm-153.16,4.1-.09,0h0Z"/><path class="cls-3" d="M250.28,212.71a34.45,34.45,0,0,0,8.59-16.17l19.61-88.33a34.7,34.7,0,0,0-26.33-41.36l-11.31-2.52A15.1,15.1,0,0,0,232.25,59l-19-4.22-.41-.08a17.37,17.37,0,0,0-13.58-16.88l-40.45-9a17.37,17.37,0,0,0-19.64,10,15.08,15.08,0,0,0-3.51-1.25l-19-4.21a15.09,15.09,0,0,0-10.06,1.23l-8-1.78A34.71,34.71,0,0,0,57.24,59.08L37.63,147.41a34.43,34.43,0,0,0,2.58,22.45,25.57,25.57,0,0,0-6.41,2.28,22.25,22.25,0,0,0-11.65,14.77,20.77,20.77,0,0,0-.41,2.75,25.66,25.66,0,0,0-8.44,14.15,22,22,0,0,0,1.3,14.13,19.7,19.7,0,0,0,13.8,10.88,20.9,20.9,0,0,0,15.92-2.37,14.93,14.93,0,0,0,4.67,2,14.13,14.13,0,0,0,4.88.21,13.83,13.83,0,0,0,10.64,1.14,14.86,14.86,0,0,0,2.9,1,14.6,14.6,0,0,0,10,7.14,15.05,15.05,0,0,0,7.6-.34,19.54,19.54,0,0,0,3,1,19.15,19.15,0,0,0,12.67-1.6,16.69,16.69,0,0,0,13,12.14,17.12,17.12,0,0,0,13.49-2.91,18.08,18.08,0,0,0,12.17-2.81c1.24,6.81,5.39,12.61,13.54,14.42,5.66,1.26,11.59-.68,16.19-5.12.36-.11.72-.23,1.07-.37a16.41,16.41,0,0,0,8.68,5.06l.28.06a16.35,16.35,0,0,0,9.92,7,15.09,15.09,0,0,0,11.1-1.89,17.67,17.67,0,0,0,6.4-.56,19.62,19.62,0,0,0,9.47,5,18.25,18.25,0,0,0,4,.43,17.07,17.07,0,0,0,10.84,7.71c7,1.55,14-1.57,18.84-8.34.2-.29.4-.58.57-.88l.06-.09c.17-.29.34-.59.49-.89a13.68,13.68,0,0,0-2-15.18,91.37,91.37,0,0,1,8.43-15.36,12.85,12.85,0,0,0,1.29-2.25l.13-.31a12,12,0,0,0,.79-2.39A14.13,14.13,0,0,0,250.28,212.71Zm-153.16,4.1-.09,0h0Z"/><path class="cls-4" d="M77.52,187.79h0a5.42,5.42,0,0,1-4.11-6.46l.74-3.37a5.44,5.44,0,0,1,6.47-4.11h0a5.43,5.43,0,0,1,4.12,6.46L84,183.68A5.44,5.44,0,0,1,77.52,187.79Z"/><path class="cls-4" d="M202.66,215.59h0a5.44,5.44,0,0,1-4.11-6.47l.74-3.36a5.43,5.43,0,0,1,6.47-4.12h0a5.44,5.44,0,0,1,4.12,6.47l-.75,3.36A5.45,5.45,0,0,1,202.66,215.59Z"/><rect class="cls-5" x="59.12" y="62.27" width="197.88" height="131.07" rx="12" transform="translate(31.47 -31.23) rotate(12.52)"/><path class="cls-4" d="M220.25,210.49,66.71,176.39A22,22,0,0,1,50,150.16L69.63,61.83a22,22,0,0,1,26.23-16.7L249.4,79.23a22,22,0,0,1,16.7,26.23l-19.62,88.33A22,22,0,0,1,220.25,210.49ZM95.12,48.43A18.63,18.63,0,0,0,72.93,62.56L53.31,150.89a18.64,18.64,0,0,0,14.13,22.2L221,207.19a18.63,18.63,0,0,0,22.19-14.13l19.62-88.33a18.63,18.63,0,0,0-14.13-22.2Z"/><rect class="cls-3" x="101.68" y="62.61" width="112.71" height="130.64" transform="translate(31.49 -31.22) rotate(12.52)"/><path class="cls-4" d="M200.17,205.94,86.84,180.77,115.89,49.93,229.23,75.1ZM90.87,178.2,197.6,201.9,225.19,77.67,118.46,54Z"/><path class="cls-3" d="M106.22,49.16,95.49,46.78A20.35,20.35,0,0,0,71.28,62.19L68.9,72.93h0a31.29,31.29,0,0,0,37.32-23.77Z"/><path class="cls-4" d="M68.53,74.58l-1.65-.37,2.75-12.38a22,22,0,0,1,26.23-16.7l12.38,2.75-.37,1.65A33,33,0,0,1,68.53,74.58ZM95.12,48.43A18.63,18.63,0,0,0,72.93,62.56l-2,9a29.65,29.65,0,0,0,33.24-21.15Z"/><path class="cls-3" d="M238.31,78.5,249,80.88a20.36,20.36,0,0,1,15.41,24.21l-2.38,10.74h0A31.29,31.29,0,0,1,238.31,78.5Z"/><path class="cls-4" d="M263.35,117.84l-1.65-.36a33,33,0,0,1-25-39.35l.36-1.65,12.38,2.75a22,22,0,0,1,16.7,26.23ZM239.64,80.53a29.64,29.64,0,0,0,21.15,33.23l2-9a18.63,18.63,0,0,0-14.13-22.2Z"/><path class="cls-3" d="M209.89,206.46l10.73,2.38a20.35,20.35,0,0,0,24.21-15.41l2.39-10.73h0a31.29,31.29,0,0,0-37.33,23.76Z"/><path class="cls-4" d="M220.25,210.49l-12.38-2.75.37-1.65A33,33,0,0,1,247.58,181l1.65.37-2.75,12.38A22,22,0,0,1,220.25,210.49Zm-8.3-5.31,9,2a18.62,18.62,0,0,0,22.19-14.13l2-9A29.65,29.65,0,0,0,212,205.18Z"/><path class="cls-3" d="M77.81,177.12l-10.74-2.38a20.36,20.36,0,0,1-15.41-24.21L54,139.8h0a31.29,31.29,0,0,1,23.77,37.32Z"/><path class="cls-4" d="M79.09,179.14l-12.38-2.75A22,22,0,0,1,50,150.16l2.75-12.38,1.65.36a33,33,0,0,1,25,39.35ZM55.32,141.86l-2,9a18.64,18.64,0,0,0,14.13,22.2l9,2A29.64,29.64,0,0,0,55.32,141.86Z"/><path class="cls-4" d="M194.5,59.24l-40.45-9a4.67,4.67,0,0,1-3.53-5.55h0a4.66,4.66,0,0,1,5.55-3.53l40.45,9a4.66,4.66,0,0,1,3.53,5.55h0A4.65,4.65,0,0,1,194.5,59.24Z"/><path class="cls-4" d="M131.82,54.85l-19-4.22a2.54,2.54,0,0,1-1.93-3h0a2.55,2.55,0,0,1,3-1.93l19,4.22a2.53,2.53,0,0,1,1.92,3h0A2.54,2.54,0,0,1,131.82,54.85Z"/><path class="cls-4" d="M228.39,76.3l-19-4.22a2.55,2.55,0,0,1-1.93-3h0a2.54,2.54,0,0,1,3-1.92l19,4.21a2.55,2.55,0,0,1,1.93,3h0A2.55,2.55,0,0,1,228.39,76.3Z"/><path class="cls-4" d="M156,61.08h0a2.12,2.12,0,0,1-1.6-2.52l2.2-9.91a2.12,2.12,0,0,1,2.52-1.6h0a2.12,2.12,0,0,1,1.61,2.52l-2.2,9.91A2.13,2.13,0,0,1,156,61.08Z"/><path class="cls-4" d="M187.35,68.05h0a2.12,2.12,0,0,1-1.6-2.52l2.2-9.91A2.12,2.12,0,0,1,190.47,54h0a2.13,2.13,0,0,1,1.61,2.53l-2.2,9.9A2.13,2.13,0,0,1,187.35,68.05Z"/><path class="cls-5" d="M188.34,82.2l-4.11,10.61,13.16,26L212.86,111,199.7,85ZM195,94.94a3.17,3.17,0,1,1,1.39-4.26A3.18,3.18,0,0,1,195,94.94Z"/><path class="cls-4" d="M196.64,121.12,182.38,92.9l4.92-12.69,13.56,3.32,14.27,28.24Zm-10.56-28.4,12.06,23.85,12.45-6.29L198.54,86.45l-9.16-2.25Zm6.46,4.14-.47-.13a4.86,4.86,0,1,1,3-9.24,4.76,4.76,0,0,1,2.82,2.42,4.86,4.86,0,0,1-5.38,7Zm1.36-6.2a1.46,1.46,0,0,0-1,.13,1.41,1.41,0,0,0-.74.86,1.47,1.47,0,0,0,.94,1.86,1.43,1.43,0,0,0,1.13-.08h0a1.48,1.48,0,0,0-.2-2.73Z"/><path class="cls-4" d="M192.68,92.09l-1.28-2.42c-1.14-2.17-11-21.4-7.77-27.29a3.5,3.5,0,0,1,3-1.82A4.33,4.33,0,0,1,190.19,62c5.28,5.52,2.91,26.51,2.8,27.4ZM187.54,62.3a2.72,2.72,0,0,0-.81-.06,1.84,1.84,0,0,0-1.62,1C183,67,188.25,79.4,191.59,86.28c.56-7.11.77-19.59-2.62-23.14A2.8,2.8,0,0,0,187.54,62.3Z"/><path class="cls-6" d="M138.52,104.22a4.92,4.92,0,0,0-9.65.31,4.92,4.92,0,0,0-8.78,4c1,4.22,11.94,7.78,11.94,7.78S139.51,108.44,138.52,104.22Z"/><path class="cls-4" d="M131.66,118l-.16,0c-2-.64-11.91-4.11-13.06-9a6.62,6.62,0,0,1,9.77-7.23,6.59,6.59,0,0,1,4-2.79,6.63,6.63,0,0,1,7.95,4.93c1.14,4.85-5.56,12.22-6.92,13.65A1.68,1.68,0,0,1,131.66,118Zm-6.07-13.71a3.33,3.33,0,0,0-1.44,0,3.24,3.24,0,0,0-2.41,3.89c.48,2.06,5.79,4.76,9.79,6.2,2.71-3.06,5.84-7.65,5.34-9.75h0a3.17,3.17,0,0,0-1.44-2,3.23,3.23,0,0,0-4.89,2.21,1.69,1.69,0,0,1-3,.71A3.25,3.25,0,0,0,125.59,104.26Z"/><polygon class="cls-6" points="148.35 80.92 156.31 84.33 148.76 88.57 147.97 97.2 141.6 91.32 133.15 93.24 136.77 85.37 132.34 77.93 140.94 78.94 146.65 72.42 148.35 80.92"/><path class="cls-4" d="M147.6,98.85a1.6,1.6,0,0,1-.78-.41l-5.71-5.27-7.58,1.72a1.71,1.71,0,0,1-1.69-.59,1.67,1.67,0,0,1-.22-1.77l3.24-7.06-4-6.68a1.69,1.69,0,0,1,1.65-2.54l7.72.9,5.12-5.84a1.69,1.69,0,0,1,2.93.78l1.52,7.62L157,82.78a1.69,1.69,0,0,1,.16,3l-6.78,3.8-.71,7.74a1.69,1.69,0,0,1-2.05,1.5ZM142,89.67a1.84,1.84,0,0,1,.78.41l3.84,3.55.48-5.21a1.67,1.67,0,0,1,.86-1.32l4.56-2.56-4.81-2.07a1.7,1.7,0,0,1-1-1.22l-1-5.13-3.45,3.93a1.71,1.71,0,0,1-1.47.57l-5.2-.61,2.67,4.49a1.7,1.7,0,0,1,.09,1.58l-2.19,4.75,5.11-1.15A1.68,1.68,0,0,1,142,89.67Z"/><path class="cls-4" d="M38.2,193.84s-.24.54-1.05.36c-4.53-1-1.75-14.68,15.28-10.9,8.32,1.85,10.92-2,12.86-1.56s-.77,4.24-9.9,3.11c-5.73,1.74-9.66,34-24.06,30.76-10.11-2.24-3.31-18.89,4.33-17.2a1.25,1.25,0,0,1,1.12,1.27c-7.64-1.7-13.5,12.66-5.7,14.39,10.68,2.37,14.93-25.37,22-29.61l-.81-.18C37.37,181,35.25,193.19,38.2,193.84Z"/><path class="cls-4" d="M31.15,216.44a6.93,6.93,0,0,1-5-3.83,9.53,9.53,0,0,1-.43-6.05c1.15-5.17,5.51-10,10.17-9a2.07,2.07,0,0,1,1.77,2.17l-.09,1-.93-.2c-3.77-.84-7.27,2.92-8.17,7a6.17,6.17,0,0,0,.2,3.74,3.54,3.54,0,0,0,2.63,2c5.73,1.27,9.76-8,13.31-16.18,2.15-4.95,4.2-9.66,6.6-12.15-3.82-.7-7.09-.36-9.48,1A7.34,7.34,0,0,0,38,190.63c-.3,1.34,0,2.31.36,2.39l1,.23-.44.95a1.71,1.71,0,0,1-2,.83c-2-.44-3-2.7-2.43-5.37a9.61,9.61,0,0,1,5.13-6.28c3.33-1.73,7.8-2,12.94-.91,5.34,1.19,8.18-.07,10.06-.91a4.54,4.54,0,0,1,2.8-.64,1.46,1.46,0,0,1,1.22,1.68c-.32,1.81-4,4-11.2,3.11-1.65.74-3.56,5.54-5.41,10.19C46.05,206,41,218.63,31.15,216.44Zm22.3-31.23c-2.57,1.6-4.88,6.91-7.33,12.53C42.77,205.46,39,214.09,33.34,215c7.35-.07,11.66-10.89,15.17-19.71C50.34,190.68,51.78,187,53.45,185.21ZM39,185.83a7.41,7.41,0,0,0-2.79,4.2,4.14,4.14,0,0,0,.06,2.29,5.93,5.93,0,0,1,.13-2.06A8.59,8.59,0,0,1,39,185.83Zm25.88-3.26a5.94,5.94,0,0,0-1.51.54,18.52,18.52,0,0,1-2.54,1C63.16,183.78,64.43,183,64.86,182.57Z"/><path class="cls-4" d="M59.36,197.19a.89.89,0,0,1,.71,1.21s-5.65,8.42-7.42,16.39a.58.58,0,0,1-.73.43c-.73-.16-.85-1.33-.34-3.64C53.26,204,56.69,196.59,59.36,197.19Zm4.72-6.93c-.23,1.05-2.82,3.36-2.82,3.36-1.42-.32.12-4.94,2.22-4.47C64.05,189.27,64.22,189.65,64.08,190.26Z"/><path class="cls-4" d="M51.74,216.05c-1.92-.43-1.26-3.39-1-4.65,1.44-6.51,5-15.89,8.79-15a1.73,1.73,0,0,1,1.34,2.23l-.12.28c-.06.09-5.58,8.39-7.29,16.1A1.42,1.42,0,0,1,51.74,216.05Zm7.52-18h-.08c-1.64-.36-5,5.57-6.77,13.75a11,11,0,0,0-.26,1.55,59.83,59.83,0,0,1,7.11-15.22Zm2.24-3.47-.43-.1c-.75-.16-1.49-1-1.1-2.74a5.68,5.68,0,0,1,1.16-2.36,2.57,2.57,0,0,1,2.54-1,1.62,1.62,0,0,1,1.24,2.12c-.27,1.22-2.43,3.23-3.09,3.81Zm1.78-4.67c-.38,0-.77.44-1,.69a4.21,4.21,0,0,0-.7,1.56,7.88,7.88,0,0,0,1.65-2.05A.61.61,0,0,0,63.28,189.87Z"/><path class="cls-4" d="M74.2,201.84c.22-.42-.22-.56-.74-.29-4.67,2.48-12.19,14-12.39,14.9a.55.55,0,0,1-.67.36c-1-.22-1-1.29-.55-3.48,1.72-7.72,5.25-15.42,7.68-14.88a.77.77,0,0,1,.58,1,82.27,82.27,0,0,0-5.35,11.45l.37.09c3.46-5.09,8.95-12,12.79-11.17a1.81,1.81,0,0,1,1.52,2.34,79.39,79.39,0,0,0-5.23,10.54l.32.08c3.27-4.2,8.58-10.15,11.69-9.46a1.75,1.75,0,0,1,1.53,2.29,56.16,56.16,0,0,0-5.13,13.16c-.71,3.2-.47,4.4.34,4.58s1.26-.53,1.67-.44.15.46.15.46-1.23,1.55-2.45,1.28c-2.14-.48-2.57-4.09-1.55-8.66a43.67,43.67,0,0,1,3.7-10.59c.17-.35-.24-.44-.67-.19-4.23,2.24-10.82,11.08-11,11.89a.56.56,0,0,1-.68.36c-1-.21-1-1.29-.54-3.47A55.16,55.16,0,0,1,74.2,201.84Z"/><path class="cls-4" d="M80.15,225.49c-2.59-.57-3.42-4.19-2.2-9.67a47.16,47.16,0,0,1,2.89-8.93,48.85,48.85,0,0,0-9.23,10.48,1.37,1.37,0,0,1-1.66.94c-2.08-.46-1.5-3.08-1.19-4.48a51.68,51.68,0,0,1,3.87-10.69c-4.48,3.48-10.4,12.58-10.75,13.54a1.38,1.38,0,0,1-1.67.95c-2.08-.46-1.5-3.08-1.18-4.48,1.42-6.43,5-16.34,8.68-15.53a1.6,1.6,0,0,1,1.22,2l-.09.24s-1.53,2.65-3.16,6.2c4.23-5.29,7.72-7.67,10.42-7.07a2.63,2.63,0,0,1,2.16,3.34l-.1.25S76.61,205.2,75,208.5c4-4.47,7.16-6.48,9.4-6a2.59,2.59,0,0,1,2.17,3.3l-.09.23a56.15,56.15,0,0,0-5,12.93c-.68,3.06-.28,3.56-.27,3.58s.23,0,.49-.19a1.55,1.55,0,0,1,1.15-.26,1.08,1.08,0,0,1,.82.66,1.25,1.25,0,0,1-.15,1.1C83.28,224.12,81.83,225.87,80.15,225.49Zm2.57-21.16a1.38,1.38,0,0,1,.33.2,1.07,1.07,0,0,1,.2,1.25,42.26,42.26,0,0,0-3.65,10.41c-.63,2.85-.66,5.22-.15,6.54a10.73,10.73,0,0,1,.34-4.12,56.47,56.47,0,0,1,5.15-13.27c.1-.57,0-1-.9-1.17A2.37,2.37,0,0,0,82.72,204.33ZM60.25,216.22a.06.06,0,0,1,0,0S60.25,216.24,60.25,216.22Zm7-16.94c-1.28-.18-4.68,5.77-6.56,14.24a5.64,5.64,0,0,0-.24,2.28,46.12,46.12,0,0,1,2.5-4l-1.3-.29.33-.9A83,83,0,0,1,67.24,199.28ZM70,216.94Zm5-14.72-.2.4a53.39,53.39,0,0,0-4.35,11.57,5.58,5.58,0,0,0-.23,2.29,26.22,26.22,0,0,1,2-2.9l-1.11-.24.36-.92a80.23,80.23,0,0,1,5.21-10.55c.11-.67-.17-1-.9-1.2a2.68,2.68,0,0,0-1.19,0,1.35,1.35,0,0,1,.27.2A1.11,1.11,0,0,1,75,202.22Z"/><path class="cls-4" d="M99.88,206.4c-6.1-1.36-15.06,16-8.22,17.56,2.87.64,5.34-2.29,5.34-2.29a.84.84,0,0,1,.84-.16c.61.14.42.44.42.44s-3.32,4.22-7.28,3.34c-10.8-2.39-.33-22,9.41-19.84,5.91,1.31.12,12.29-7.12,10.68-1.34-.3-1.44-1.17-1.44-1.17C97.17,216.15,103.4,207.18,99.88,206.4Z"/><path class="cls-4" d="M90.79,226.12a6.29,6.29,0,0,1-4.58-3.43,8.83,8.83,0,0,1-.36-5.63c1.51-6.78,8.41-13.84,14.72-12.44a3.76,3.76,0,0,1,2.69,2,4.78,4.78,0,0,1,.26,3.19c-.84,3.78-5.21,8.33-10.43,7.17a2.67,2.67,0,0,1-1.93-1.35,16.53,16.53,0,0,0-.87,2.7c-.36,1.6-.63,4.35,1.55,4.83,2.34.53,4.49-2,4.52-2a1.61,1.61,0,0,1,1.67-.43,1.29,1.29,0,0,1,1,.75,1.06,1.06,0,0,1-.08,1C98.77,222.66,95.23,227.1,90.79,226.12Zm4.35-19a16.46,16.46,0,0,0-7.64,10.26,7.16,7.16,0,0,0,.24,4.54A4.21,4.21,0,0,0,89.83,224c-1.39-1.12-1.83-3.24-1.19-6.08a21.75,21.75,0,0,1,4.34-8.6A14.77,14.77,0,0,1,95.14,207.17Zm2.52,15s0,0,0,0Zm4.06-14.9a3.31,3.31,0,0,1-.06,1.24c-.49,2.2-3.2,5.61-6.4,6.88,3.34-.31,6-3.44,6.61-6a3.17,3.17,0,0,0-.12-2.06Zm-9.86,6.8.15,0c3.42.75,7.46-3.54,8-6a1.33,1.33,0,0,0,0-.75s-.06-.14-.31-.2c-1.49-.33-3.46.84-5.42,3.2A21.08,21.08,0,0,0,91.86,214.1Z"/><path class="cls-4" d="M122.82,212c-2.48,4.29-5.71,10.62-6.88,15.91-.74,3.32-.69,6.17,1.17,6.58,1.53.35,3.18-1.16,3.73-1.88.26-.41,1-.11.85.19s-2.62,3.53-5,3c-3.36-.74-4.09-4.3-3-9.44a54.74,54.74,0,0,1,6-14.54,8.83,8.83,0,0,1-1.39-.22c-2-.44-1.35-2.34-.62-2.17,0,0,.18.33,1.07.53.53.12,1.18.22,1.92.34,1.81-2.82,3.6-4.59,4.78-4.33.48.11.62.44.51.93,0,0-1,1.47-2.38,3.84,2.24.24,4.39.5,5.32.71.48.11.27,1.08-.74.85C127.5,212.19,125.14,212.13,122.82,212Z"/><path class="cls-4" d="M116.46,236.66c-2.57-.57-5.28-2.85-3.59-10.45a55.52,55.52,0,0,1,5.46-13.71,2.86,2.86,0,0,1-1.87-1.06,2,2,0,0,1-.29-1.55,1.47,1.47,0,0,1,1.68-1.26l.38.09.17.3s.16.06.52.15.83.16,1.33.24c2.1-3.13,3.9-4.56,5.37-4.23a1.49,1.49,0,0,1,1.16,1.93l-.13.29s-.69,1-1.68,2.67c2,.23,3.41.43,4.1.59h0a1.17,1.17,0,0,1,.88,1.43,1.37,1.37,0,0,1-.71.92,1.79,1.79,0,0,1-1.28.15c-.45-.1-2.27-.17-3.89-.22l-.77,0c-2,3.57-5.35,9.9-6.54,15.23-.71,3.2-.51,5.34.53,5.57s2.38-.91,2.87-1.57a1.27,1.27,0,0,1,1.14-.54,1.38,1.38,0,0,1,1.15.67,1,1,0,0,1,0,1C121.89,234,119.33,237.29,116.46,236.66ZM121,211.25l-.61,1a53.71,53.71,0,0,0-5.89,14.29c-.86,3.87-.59,6.45.81,7.69-.7-1.06-1-3-.22-6.5,1.28-5.77,4.92-12.6,7-16.15l.75-1.28c1-1.64,1.73-2.85,2.13-3.46-.59.21-1.81,1.12-3.6,3.91Zm.53,21.85,0,.06Zm-3.35-22.38a1.93,1.93,0,0,0,.31.09c.23.05.49.11.81.16A9.57,9.57,0,0,1,118.2,210.72Z"/><path class="cls-4" d="M129.32,231.31c3.08.68,8.65-6.44,10.38-14.25l.11-.48c-1.56-1.58-2.18-3.75-2-4.56a1.84,1.84,0,0,1,1.86-1.12c1.09.25,1.63,2.79,1.51,5a4.51,4.51,0,0,0,2.24,1.39,2.51,2.51,0,0,0,1.36,0,1.45,1.45,0,0,1-1.78,1.13,6,6,0,0,1-2.05-.88c-1.8,7.71-7.66,16.16-12.39,15.11-9-2,.05-20.31,7.13-18.74a1.25,1.25,0,0,1,1,1.25C131.35,214,124.11,230.15,129.32,231.31Z"/><path class="cls-4" d="M128.37,233.49a5.27,5.27,0,0,1-4-3.29,9.32,9.32,0,0,1-.16-5.37c1.37-6.18,6.86-12.79,11.62-11.73a2.07,2.07,0,0,1,1.4,1,4.35,4.35,0,0,1-.29-2.22,2.65,2.65,0,0,1,2.87-1.76c1.82.4,2.22,3.6,2.19,5.53a3.28,3.28,0,0,0,1.56.9,1.83,1.83,0,0,0,.89,0l1.42-.49-.3,1.47a2.28,2.28,0,0,1-2.79,1.77,6.6,6.6,0,0,1-1.32-.44C139.48,226.07,133.83,234.7,128.37,233.49Zm5.93-18.78c-3.44.49-7.35,5.76-8.4,10.49a7.73,7.73,0,0,0,.08,4.39,3.4,3.4,0,0,0,2,2,3.34,3.34,0,0,1-1.17-1.9,8.6,8.6,0,0,1,.13-3.87C127.89,221.71,131,216.29,134.3,214.71Zm2.24,1.29c-2.72-.61-6.84,5.34-7.92,10.21a7.2,7.2,0,0,0-.14,3.11c.22.88.69,1.09,1,1.16,2.27.51,7.65-5.89,9.37-13.6v0a8.71,8.71,0,0,1-1.37-2.14,2.09,2.09,0,0,1,0,.53l0,1Zm2.94-4.27a1.1,1.1,0,0,0-.85.5,5.86,5.86,0,0,0,1.7,3.68h0C140.46,213.6,139.84,211.87,139.48,211.73Z"/><path class="cls-4" d="M162,220.75c-2.48,4.28-5.7,10.61-6.88,15.91-.74,3.31-.69,6.16,1.17,6.58,1.54.34,3.18-1.16,3.73-1.89.26-.41,1-.11.85.19s-2.61,3.53-5,3c-3.36-.75-4.09-4.31-3-9.44a54.74,54.74,0,0,1,6-14.54,10,10,0,0,1-1.39-.23c-2-.44-1.35-2.33-.62-2.17,0,0,.18.34,1.07.53.53.12,1.18.22,1.92.35,1.81-2.83,3.61-4.59,4.78-4.33.48.11.62.43.52.92,0,0-1,1.47-2.39,3.84,2.24.24,4.39.51,5.32.71.48.11.27,1.08-.74.86C166.69,220.89,164.33,220.84,162,220.75Z"/><path class="cls-4" d="M155.66,245.36c-2.58-.57-5.29-2.85-3.6-10.45a55.31,55.31,0,0,1,5.46-13.7,2.88,2.88,0,0,1-1.87-1.07,2,2,0,0,1-.29-1.55,1.49,1.49,0,0,1,1.69-1.26l.38.09.16.3s.16.07.52.15.83.16,1.33.24c2.1-3.13,3.9-4.55,5.37-4.23a1.49,1.49,0,0,1,1.16,1.93l-.13.3s-.69,1-1.68,2.67c2,.23,3.41.42,4.1.58h0a1.17,1.17,0,0,1,.88,1.43,1.4,1.4,0,0,1-.7.93,1.79,1.79,0,0,1-1.29.14c-.45-.1-2.27-.16-3.88-.22l-.78,0c-2,3.57-5.35,9.91-6.53,15.23-.72,3.21-.51,5.34.52,5.57s2.38-.91,2.87-1.57a1.27,1.27,0,0,1,1.15-.53,1.34,1.34,0,0,1,1.14.67,1,1,0,0,1,0,1C161.08,242.7,158.52,246,155.66,245.36ZM160.22,220l-.62,1a53.71,53.71,0,0,0-5.89,14.29c-.86,3.88-.59,6.45.81,7.69-.7-1.05-1-3-.22-6.5,1.29-5.77,4.93-12.59,7-16.15l.75-1.27c1-1.65,1.73-2.86,2.13-3.46-.59.2-1.81,1.11-3.6,3.9Zm.52,21.85,0,.06Zm-3.35-22.37.31.09c.23,0,.49.11.81.15C158.08,219.59,157.7,219.52,157.39,219.43Z"/><path class="cls-4" d="M182.89,223.26s-3,2-4.28,7.62c-.05.2-.16.31-.28.28-1.82-.4-1-4.64.73-7.09-4.69,2.56-12.87,12.88-13.4,15.22a.55.55,0,0,1-.67.36c-1-.21-1-1.29-.54-3.47,1.71-7.72,5.29-15.42,7.67-14.89.53.12.7.5.57,1.06a82.54,82.54,0,0,0-5.35,11.5l.28.06c3.9-5.32,10.56-12.58,14.53-11.7A.89.89,0,0,1,182.89,223.26Z"/><path class="cls-4" d="M164.81,240.48c-2.08-.46-1.5-3.08-1.19-4.48,1.43-6.44,5-16.34,8.69-15.53a1.6,1.6,0,0,1,1.21,2.07l-.09.24s-1.69,2.94-3.42,6.77c3.36-3.91,8.56-9,12.32-8.17a1.74,1.74,0,0,1,1.38,2.06l-.07.34-.29.19c-.07.05-2.77,1.93-3.92,7.09a1.07,1.07,0,0,1-1.28.92,2,2,0,0,1-1.46-1.31,6.52,6.52,0,0,1,.18-4c-4.45,3.84-10,11.07-10.38,12.78A1.38,1.38,0,0,1,164.81,240.48Zm7-18.32c-1.27-.21-4.68,5.74-6.56,14.2a6.22,6.22,0,0,0-.25,2.21,21.73,21.73,0,0,1,2.37-3.84l-1.17-.26.32-.91A85.45,85.45,0,0,1,171.83,222.16Zm8.95.94-1,1.45a9,9,0,0,0-1.6,4.74,13.63,13.63,0,0,1,3.66-6.25A3.05,3.05,0,0,0,180.78,223.1Z"/><path class="cls-4" d="M192.41,249.77c1.13.25,2-1.34,2-1.34a.63.63,0,0,1,.67-.32c.4.09.18.51.18.51s-1.65,2.86-3.27,2.5c-2.39-.53-2.73-4.34-1.76-8.71a36.36,36.36,0,0,1,1.64-5.28l-.4-.09c-3.4,3.66-7.65,7.51-9.67,7.06-7-1.56,2.45-20.41,11.35-18.44a3.24,3.24,0,0,1,2.45,2.88s-.27.66-.84.54-.71-.63-.71-.63a2,2,0,0,0-1.43-1.76c-5.42-1.2-12.93,15.42-10.1,16.05,2.19.48,10.68-9.47,12.48-11.66,1.18-1.52,2.38-2.52,3.47-2.28.49.11.69.53.57,1.1a42,42,0,0,0-6.93,15.31C191.39,248.44,191.6,249.59,192.41,249.77Z"/><path class="cls-4" d="M191.8,251.94c-2.72-.6-3.62-4.23-2.4-9.71.17-.81.4-1.66.67-2.53-3.89,3.86-6.73,5.61-8.47,5.23a3.7,3.7,0,0,1-2.82-2.55,8,8,0,0,1,0-4.22c1.4-6.28,7.91-14.8,14.56-13.32a4.06,4.06,0,0,1,3.12,3.63,2.91,2.91,0,0,1,2.21-.5,1.65,1.65,0,0,1,1.2,2.11l-.16.34a41.34,41.34,0,0,0-6.76,15c-.61,2.77-.39,3.43-.32,3.56.35.05.86-.58,1-.92a1.44,1.44,0,0,1,1.59-.74,1.11,1.11,0,0,1,.8.62A1.27,1.27,0,0,1,196,249C195.78,249.39,194,252.42,191.8,251.94Zm-.13-15.71,1.34.29-.36.92a34.9,34.9,0,0,0-1.6,5.16,13,13,0,0,0-.21,6.19,13.14,13.14,0,0,1,.44-3.77,42.62,42.62,0,0,1,6.94-15.45v0c-.27,0-1.07.15-2.56,2C194.67,232.8,193.24,234.49,191.67,236.23Zm-3.1-9c-3.86,2-7.26,7.22-8.15,11.26a6.54,6.54,0,0,0,0,3.32,2,2,0,0,0,1.2,1.32c-.47-.48-.74-1.45-.32-3.35C182,236.36,185.06,230.1,188.57,227.26Zm3.86.26c-1.42-.32-3.47,1.22-5.5,4.11-3.07,4.38-4.62,9.56-4.12,10.36,1.07,0,6.41-5.23,11.53-11.45.15-.19.31-.4.49-.6l-.26,0a1.6,1.6,0,0,1-1.37-1.41h0S193.09,227.67,192.43,227.52Z"/><path class="cls-4" d="M213.1,233l.06-.25a6.33,6.33,0,0,1-1.77-4.46,1.81,1.81,0,0,1,2-1.09c1,.22,1.44,2.7,1.2,4.93a4.19,4.19,0,0,0,2.27,1.44,2.43,2.43,0,0,0,1.35,0,1.55,1.55,0,0,1-1.94,1.09,5.68,5.68,0,0,1-2-.86c-1.94,7.59-8.5,16.1-12.91,15.12-7.31-1.62,1.73-18.66,4.52-18,.57.12.75.46.62,1,0,0-4.5,8.25-5.36,12.13-.39,1.74-.4,3.31.85,3.59C204.75,248.27,211.36,240.87,213.1,233Z"/><path class="cls-4" d="M201.19,249.79a4.1,4.1,0,0,1-3.19-3,9.77,9.77,0,0,1,.07-4.83c1.09-4.9,5.28-12.48,8-11.88a1.57,1.57,0,0,1,1.27,2l-.09.22c0,.08-4.45,8.19-5.28,11.91-.16.72-.46,2.42.22,2.57,2,.45,8.32-6.34,10.05-13.82a6.9,6.9,0,0,1-1.68-4.88,2.66,2.66,0,0,1,3-1.73c1.8.4,2,3.56,1.89,5.47a3.29,3.29,0,0,0,1.58.91,2,2,0,0,0,.88,0l1.44-.45-.33,1.45a2.38,2.38,0,0,1-2.94,1.72,6.7,6.7,0,0,1-1.26-.43C212.46,242.82,206,250.86,201.19,249.79Zm4.43-18c-1.5.55-5.72,7-6.16,12.22-.2,2.3.48,3.29,1.15,3.73-.6-.76-.69-2-.29-3.87C201.12,240.29,204.82,233.29,205.62,231.81Zm7.54-3.77a1.11,1.11,0,0,0-.95.47,5.66,5.66,0,0,0,1.51,3.63v-.07C214,229.93,213.49,228.25,213.16,228Z"/><path class="cls-4" d="M227.86,234.82c-6.11-1.36-15.06,16-8.23,17.56,2.87.64,5.34-2.29,5.34-2.29a.82.82,0,0,1,.84-.15c.61.13.42.43.42.43s-3.32,4.22-7.28,3.34c-10.8-2.39-.33-22,9.41-19.84,5.91,1.31.12,12.29-7.12,10.68-1.33-.3-1.44-1.17-1.44-1.17C225.14,244.57,231.37,235.6,227.86,234.82Z"/><path class="cls-4" d="M218.77,254.54a6.29,6.29,0,0,1-4.59-3.43,8.83,8.83,0,0,1-.36-5.63c1.51-6.78,8.41-13.84,14.73-12.44a3.76,3.76,0,0,1,2.68,2,4.78,4.78,0,0,1,.26,3.19c-.83,3.78-5.21,8.33-10.43,7.17a2.69,2.69,0,0,1-1.93-1.35,16.32,16.32,0,0,0-.87,2.71c-.36,1.59-.63,4.34,1.55,4.83,2.35.52,4.5-2,4.52-2a1.61,1.61,0,0,1,1.67-.43,1.29,1.29,0,0,1,1,.75,1.06,1.06,0,0,1-.08,1C226.74,251.08,223.2,255.52,218.77,254.54Zm4.34-18.95a16.46,16.46,0,0,0-7.64,10.26,7.23,7.23,0,0,0,.24,4.54,4.21,4.21,0,0,0,2.09,2.05c-1.39-1.12-1.82-3.24-1.19-6.08a21.89,21.89,0,0,1,4.34-8.6A15.27,15.27,0,0,1,223.11,235.59Zm2.52,15,0,0Zm4.07-14.9a3.56,3.56,0,0,1-.07,1.24c-.49,2.2-3.19,5.61-6.4,6.88,3.34-.31,6-3.44,6.61-6a3.11,3.11,0,0,0-.12-2.06S229.7,235.74,229.7,235.72Zm-9.87,6.8.16,0c3.41.75,7.45-3.54,8-6a1.45,1.45,0,0,0,0-.75s-.07-.14-.32-.2c-1.48-.33-3.46.84-5.42,3.2A21.08,21.08,0,0,0,219.83,242.52Z"/><path class="cls-4" d="M238.74,258.83c-.19.26-2.53,3.55-4.92,3-3.31-.73-3.7-4.93-2.56-10.07,2.69-12.09,11.59-27,14.54-26.3.49.11.63.44.51,1,0,0-10.06,14.15-13,27.57-.73,3.32-.53,6.2,1,6.55,1.37.3,3-1.2,3.57-1.93C238.15,258.23,238.89,258.52,238.74,258.83Z"/><path class="cls-4" d="M233.64,262.68c-2-.45-5.11-2.48-3.2-11.08,2.48-11.18,11.41-27.86,15.55-26.95a1.51,1.51,0,0,1,1.15,2l-.14.31c-.1.14-10,14.17-12.9,27.26-.79,3.55-.25,5.4.36,5.54.85.19,2.22-.94,2.71-1.6a1.43,1.43,0,0,1,1.88-.32,1.07,1.07,0,0,1,.44,1.4l-.07.11-.68-.49.68.5C238.75,260.27,236.34,263.28,233.64,262.68Zm11.7-36.33c-2.37.85-10.56,13.5-13.25,25.62-.56,2.52-1.11,6.52.52,8.27-.73-1.27-.81-3.51-.16-6.41C235.19,241.49,243.65,228.79,245.34,226.35Z"/></g></g></svg>