<svg xmlns="http://www.w3.org/2000/svg" viewBox="0 0 300 300"><defs><style>.cls-1{isolation:isolate;}.cls-2{fill:#ccc;mix-blend-mode:multiply;}.cls-3{fill:#fff;}.cls-4{fill:#2c3d4d;}.cls-5{fill:#f58e95;}.cls-6{fill:#489ce2;}</style></defs><g class="cls-1"><g id="Layer_1" data-name="Layer 1"><path class="cls-2" d="M293.92,198.07a17.6,17.6,0,0,0-6.87-9.74,56.42,56.42,0,0,1-1.16-11.88,13.34,13.34,0,0,0-.72-6.35l-.08-.22a15.59,15.59,0,0,0-6.85-8.18,15.35,15.35,0,0,0-13-1,16.58,16.58,0,0,0-5.54,3.42,15.3,15.3,0,0,0-6.24,1,16.09,16.09,0,0,0-6.82,5,13.75,13.75,0,0,0-1.56.27,18.33,18.33,0,0,0-2.59-.25,20.86,20.86,0,0,0,2.27-3.46A20.29,20.29,0,0,0,246.14,151L207.85,29.56a20.48,20.48,0,0,0-25.61-13.33L98.92,42.49c-.67.22-1.26.45-1.78.68l-4.66,1.47A20.35,20.35,0,0,0,79.21,70.12l2.84,9a13.27,13.27,0,0,0-7.85,5.16c-.08.11-.15.22-.23.32L69.61,91,62.5,86.91a13.33,13.33,0,0,0-18.24,4.82L12.85,145.81A13.32,13.32,0,0,0,17.67,164l33.52,19.63a12.61,12.61,0,0,0,1.77.87l38.2,22.18a17.18,17.18,0,0,0-7,6.64l-.65.26c-17.25,6.4-21.06,18.57-21.9,23.5a23.78,23.78,0,0,0,2.74,16,26,26,0,0,0-1.24,4.67c-1.68,9.9,1.84,20.4,8.76,26.13a21,21,0,0,0,16.87,4.61,24.42,24.42,0,0,0,4.6-1.21,23.37,23.37,0,0,0,14-13.24,19.09,19.09,0,0,0,5.12,2.9,15.21,15.21,0,0,0,2,2.39A18.9,18.9,0,0,0,131,284.6a24.58,24.58,0,0,0,4.62-1.23,24.9,24.9,0,0,0,15.49-16.47,15.83,15.83,0,0,0,6.61-9.76,24.63,24.63,0,0,0,12.39,1.19,28,28,0,0,0,5.36-1.42A28.63,28.63,0,0,0,187,249a25.19,25.19,0,0,0,9.4-7.08,15.5,15.5,0,0,0,9.65-.43,15,15,0,0,0,6.85-5.1,17.24,17.24,0,0,0,3-.81,16.38,16.38,0,0,0,5.25-3.16,17.67,17.67,0,0,0,15.91-7.2,18,18,0,0,0,9.2-.91c.37-.13.72-.28,1.07-.44l.2.09a15.11,15.11,0,0,0,3.22,4.77A18.9,18.9,0,0,0,267.4,234a23.56,23.56,0,0,0,4.61-1.23,24.88,24.88,0,0,0,15.49-16.47A16.41,16.41,0,0,0,293.92,198.07Zm-8.06-21.35,0-.2a1.08,1.08,0,0,1,0,.25S285.86,176.76,285.86,176.72Z"/><path class="cls-3" d="M289,197.46a17.55,17.55,0,0,0-6.87-9.73A55.2,55.2,0,0,1,281,175.85a13.25,13.25,0,0,0-.73-6.36l-.08-.21a15.65,15.65,0,0,0-6.85-8.19,15.35,15.35,0,0,0-13-1,16.53,16.53,0,0,0-5.54,3.41,15.23,15.23,0,0,0-6.23,1,16,16,0,0,0-6.83,5c-.52.07-1,.15-1.56.27a17,17,0,0,0-2.59-.24,21.28,21.28,0,0,0,2.27-3.46,20.29,20.29,0,0,0,1.37-15.57L202.92,29A20.5,20.5,0,0,0,177.3,15.62L94,41.89c-.67.22-1.26.45-1.78.68L87.54,44A20.35,20.35,0,0,0,74.27,69.52l2.84,9a13.32,13.32,0,0,0-7.85,5.17L69,84l-4.36,6.39L57.56,86.3a13.33,13.33,0,0,0-18.24,4.83L7.91,145.2a13.34,13.34,0,0,0,4.83,18.22l33.51,19.63a14.65,14.65,0,0,0,1.78.87L86.22,206.1a17.13,17.13,0,0,0-7,6.63c-.18.08-.4.17-.66.26-17.25,6.41-21.06,18.58-21.9,23.51a23.74,23.74,0,0,0,2.74,16,26.36,26.36,0,0,0-1.23,4.68C56.51,267,60,277.54,67,283.28a21,21,0,0,0,16.88,4.61,24.57,24.57,0,0,0,4.59-1.22,23.38,23.38,0,0,0,14-13.23,19.26,19.26,0,0,0,5.13,2.9,14.61,14.61,0,0,0,1.94,2.39A18.94,18.94,0,0,0,126.08,284a25.4,25.4,0,0,0,20.1-17.7,15.85,15.85,0,0,0,6.61-9.77,24.43,24.43,0,0,0,12.39,1.19,27.93,27.93,0,0,0,5.36-1.41,28.63,28.63,0,0,0,11.56-7.92,25.11,25.11,0,0,0,9.4-7.09,15.49,15.49,0,0,0,9.65-.42,15.2,15.2,0,0,0,6.86-5.1,18.32,18.32,0,0,0,3-.81,16.56,16.56,0,0,0,5.25-3.16,18.5,18.5,0,0,0,7.94-1.09,18.06,18.06,0,0,0,8-6.12,18,18,0,0,0,9.2-.9c.37-.14.72-.28,1.07-.44l.2.09a15.09,15.09,0,0,0,3.23,4.77,18.93,18.93,0,0,0,16.58,5.27,24.29,24.29,0,0,0,4.61-1.23,24.88,24.88,0,0,0,15.49-16.47A16.42,16.42,0,0,0,289,197.46Zm-8.06-21.34,0-.21a1.27,1.27,0,0,1,0,.26A.12.12,0,0,0,280.92,176.12Z"/><rect class="cls-3" x="87.36" y="90.78" width="58.44" height="127.13" transform="translate(-76.63 163.53) rotate(-55.66)"/><path class="cls-4" d="M153.11,217.18l-108.35-74L80.05,91.51l108.35,74ZM50.46,142.07,152,211.48l30.66-44.86L81.12,97.21Z"/><polygon class="cls-5" points="76.25 162.34 109.43 113.8 80.58 94.36 47.61 142.61 76.25 162.34"/><path class="cls-4" d="M76.79,165.2l-32-22.06L80,91.52l32.25,21.73ZM50.46,142.08l25.26,17.41,30.85-45.14L81.12,97.2Z"/><line class="cls-3" x1="97.73" y1="157.33" x2="151.71" y2="194.72"/><path class="cls-4" d="M152,196.75a2.11,2.11,0,0,1-1.49-.34L96.57,159a2,2,0,0,1,2.33-3.37l54,37.39a2,2,0,0,1,.52,2.85A2.06,2.06,0,0,1,152,196.75Z"/><line class="cls-3" x1="105.26" y1="145.38" x2="159.24" y2="182.76"/><path class="cls-4" d="M159.56,184.79a2.05,2.05,0,0,1-1.49-.34l-54-37.39a2.05,2.05,0,0,1,2.34-3.37l54,37.39a2.05,2.05,0,0,1-.84,3.71Z"/><line class="cls-3" x1="112.48" y1="133.57" x2="166.45" y2="170.96"/><path class="cls-4" d="M166.77,173a2,2,0,0,1-1.48-.34l-54-37.39a2,2,0,0,1,2.33-3.37l54,37.39a2.05,2.05,0,0,1,.52,2.85A2,2,0,0,1,166.77,173Z"/><polygon class="cls-3" points="81.75 105.11 71.79 120.29 87.9 131.34 98.2 116.11 81.75 105.11"/><path class="cls-4" d="M88.45,134.2,69,120.84l12.2-18.59,19.89,13.3ZM74.6,119.74l12.76,8.75,8-11.82-13-8.71Z"/><rect class="cls-3" x="62.66" y="94.25" width="58.44" height="127.13" transform="translate(-90.73 158) rotate(-59.85)"/><path class="cls-4" d="M132.91,217.81l-1.77-1L19.44,151.9,50.85,97.82l1.77,1,111.71,64.88ZM25,150.41,131.43,212.2l27.29-47L52.33,103.43Z"/><polygon class="cls-5" points="52.25 168.74 81.78 117.9 51.59 100.62 22.24 151.16 52.25 168.74"/><path class="cls-4" d="M53,171.55,19.44,151.89l31.4-54.06,33.75,19.32ZM25,150.42l26.47,15.51L79,118.66,52.34,103.41Z"/><line class="cls-3" x1="73.3" y1="162.17" x2="129.87" y2="195.51"/><path class="cls-4" d="M130.18,197.54a2.07,2.07,0,0,1-1.36-.26L72.26,163.94a2,2,0,1,1,2.08-3.53l56.57,33.34a2.05,2.05,0,0,1-.73,3.79Z"/><line class="cls-3" x1="79.93" y1="149.7" x2="136.5" y2="183.04"/><path class="cls-4" d="M136.82,185.06a2,2,0,0,1-1.36-.26L78.89,151.46A2,2,0,0,1,81,147.93l56.57,33.34a2,2,0,0,1,.72,2.81A2,2,0,0,1,136.82,185.06Z"/><line class="cls-3" x1="86.27" y1="137.39" x2="142.83" y2="170.73"/><path class="cls-4" d="M143.15,172.76a2.07,2.07,0,0,1-1.36-.26L85.23,139.16a2,2,0,1,1,2.08-3.53L143.88,169a2.05,2.05,0,0,1-.73,3.79Z"/><polygon class="cls-3" points="53.54 111.26 44.72 127.13 61.6 136.97 70.76 121.03 53.54 111.26"/><path class="cls-4" d="M62.35,139.78,42,127.89l10.8-19.43,20.81,11.8ZM47.49,126.37l13.36,7.79L68,121.79l-13.62-7.73Z"/><rect class="cls-3" x="112.25" y="40.24" width="97.4" height="137.42" rx="2.46" transform="translate(-25.31 53.43) rotate(-17.5)"/><path class="cls-4" d="M139.56,189.8a7.12,7.12,0,0,1-7.88-4.87L93.4,63.49A7.11,7.11,0,0,1,98,54.59L181.3,28.34A7.12,7.12,0,0,1,190.21,33l38.28,121.44a7.12,7.12,0,0,1-4.64,8.9l-83.26,26.25A6.65,6.65,0,0,1,139.56,189.8ZM183,32.15a2.23,2.23,0,0,0-.43.1L99.27,58.5a3,3,0,0,0-2,3.75L135.6,183.69a3,3,0,0,0,3.75,2l83.27-26.25a3,3,0,0,0,1.75-1.48,3,3,0,0,0,.21-2.28L186.29,34.2A3,3,0,0,0,183,32.15Z"/><rect class="cls-6" x="105.73" y="42.29" width="97.4" height="137.42" rx="2.46" transform="translate(-26.23 51.57) rotate(-17.5)"/><path class="cls-4" d="M133,191.75a7,7,0,0,1-7.75-4.8L87,65.51a7,7,0,0,1,4.57-8.77l83.27-26.25a7,7,0,0,1,8.76,4.57L221.87,156.5a7,7,0,0,1-4.57,8.76L134,191.51A5.93,5.93,0,0,1,133,191.75ZM176.44,34.1a3.63,3.63,0,0,0-.45.1L92.72,60.45a3.11,3.11,0,0,0-2,3.89L129,185.78a3.08,3.08,0,0,0,3.88,2l83.27-26.25a3.1,3.1,0,0,0,2-3.88L179.87,36.23A3.09,3.09,0,0,0,176.44,34.1Z"/><path class="cls-4" d="M155.66,118A30.76,30.76,0,0,1,121.6,96.85a30.75,30.75,0,1,1,38.58,20.08A31.18,31.18,0,0,1,155.66,118Zm-8.83-56.74a26.74,26.74,0,0,0-21.32,34.36,26.65,26.65,0,1,0,50.84-16h0a26.66,26.66,0,0,0-29.52-18.33Z"/><path class="cls-4" d="M158.56,117.3c-9.54,1.51-20.34-8.65-25.23-24.15-5.18-16.45-1.47-31.79,8.46-34.92s21.77,7.3,27,23.75h0c5.18,16.45,1.47,31.79-8.46,34.92A11.7,11.7,0,0,1,158.56,117.3ZM144.12,61.88a8.22,8.22,0,0,0-1.09.26c-7.48,2.36-10.13,16-5.79,29.77s14.34,23.43,21.81,21.07,10.13-16,5.79-29.77h0C160.7,70.1,151.45,60.73,144.12,61.88Z"/><path class="cls-4" d="M138.3,80.26a57.2,57.2,0,0,1-15.09.45l.44-4.08c14.81,1.62,31.91-3.76,42.53-13.4l2.75,3C161,73.46,149.76,78.45,138.3,80.26Z"/><path class="cls-4" d="M134.85,112l-2.76-3c11.44-10.38,29.82-16.18,45.73-14.44l-.45,4.08C162.56,97,145.47,102.4,134.85,112Z"/><rect class="cls-4" x="122.22" y="85.52" width="57.57" height="4.1" transform="translate(-19.35 49.49) rotate(-17.51)"/><rect class="cls-4" x="148.47" y="59.02" width="4.1" height="57.41" transform="translate(-19.41 49.31) rotate(-17.5)"/><path class="cls-4" d="M141.84,134.41a6.64,6.64,0,0,1,5.45.2,7.62,7.62,0,0,1,3.22,4.61l1.14,3.62a7.7,7.7,0,0,1,0,5.63,6.64,6.64,0,0,1-4.35,3.28l-2.07.66,3.3,10.44-4.37,1.38-8.76-27.79ZM141,139l3,9.41,2.07-.65a2.29,2.29,0,0,0,1.41-1.06,3.07,3.07,0,0,0-.1-2.24l-1.31-4.17a3.11,3.11,0,0,0-1.21-1.89,2.25,2.25,0,0,0-1.76-.05Z"/><path class="cls-4" d="M172.75,155.21l-4.41,1.39L166,151.8l-5.36,1.69.84,5.28-4,1.26-4.32-29.19,6.39-2ZM160,149.54l4.2-1.32-6.53-13.39Z"/><path class="cls-4" d="M167.56,133.63a7.9,7.9,0,0,1,0-5.68,7.71,7.71,0,0,1,9.65-3,8,8,0,0,1,3.24,4.68l.34,1.07-4.13,1.3-.42-1.35a3.24,3.24,0,0,0-1.25-1.94,2.18,2.18,0,0,0-1.8-.11,2.23,2.23,0,0,0-1.42,1.12,3.27,3.27,0,0,0,.1,2.31,5.23,5.23,0,0,0,1.43,2.32,10.76,10.76,0,0,0,2.24,1.56c.83.45,1.72.88,2.65,1.3a21.1,21.1,0,0,1,2.72,1.48,11.69,11.69,0,0,1,2.41,2.12A9.17,9.17,0,0,1,185,144a7.77,7.77,0,0,1,0,5.7,7.82,7.82,0,0,1-9.72,3.06,7.78,7.78,0,0,1-3.28-4.66l-.6-1.91,4.12-1.3.69,2.19a3,3,0,0,0,1.28,1.9,2.32,2.32,0,0,0,1.84.08,2.36,2.36,0,0,0,1.45-1.11,3,3,0,0,0,0-2.3,5.17,5.17,0,0,0-1.43-2.32,11,11,0,0,0-2.24-1.56c-.84-.45-1.73-.89-2.66-1.31A20.38,20.38,0,0,1,171.7,139a11.73,11.73,0,0,1-2.42-2.12A9.16,9.16,0,0,1,167.56,133.63Z"/><path class="cls-4" d="M182.41,129a7.93,7.93,0,0,1,0-5.69,7.73,7.73,0,0,1,9.65-3,8,8,0,0,1,3.24,4.68l.34,1.07-4.13,1.3-.43-1.35a3.23,3.23,0,0,0-1.24-1.94,2.2,2.2,0,0,0-1.81-.11,2.23,2.23,0,0,0-1.41,1.12,3.27,3.27,0,0,0,.1,2.31,5.21,5.21,0,0,0,1.42,2.32,11.44,11.44,0,0,0,2.24,1.56c.84.45,1.73.88,2.66,1.3a21.79,21.79,0,0,1,2.72,1.48,11.69,11.69,0,0,1,2.41,2.12,9,9,0,0,1,1.72,3.25,7.8,7.8,0,0,1,0,5.71,7.84,7.84,0,0,1-9.73,3.06,7.82,7.82,0,0,1-3.28-4.66l-.6-1.91,4.13-1.3.69,2.18a3,3,0,0,0,1.28,1.92,2.39,2.39,0,0,0,1.83.07,2.35,2.35,0,0,0,1.46-1.11,3,3,0,0,0,0-2.3,5.09,5.09,0,0,0-1.43-2.32,10.5,10.5,0,0,0-2.24-1.56c-.83-.45-1.72-.89-2.65-1.31a19.47,19.47,0,0,1-2.72-1.48,11.12,11.12,0,0,1-2.41-2.12A9,9,0,0,1,182.41,129Z"/><line class="cls-5" x1="95.12" y1="55.74" x2="136.22" y2="186.12"/><rect class="cls-4" x="113.73" y="52.58" width="3.89" height="136.7" transform="translate(-31.01 40.37) rotate(-17.5)"/><path class="cls-4" d="M89.13,240.51c2,12.67,4.75,28.83-5.71,32.71-11.81,4.38-15.15-17.31-6.2-20.63a1.5,1.5,0,0,1,2,.56c-8.94,3.32-6.12,22,3.06,18.63,8-3,5.52-17.32,4-29.48a27.74,27.74,0,0,1-3.8,1.89c-1.93.72-2.72-1.56-1.87-1.88,0,0,.34.2,1.14-.1,1.22-.45,2.74-1.12,4.29-1.86-.62-5.71-.93-10.74.38-13.69-.73.33-1.49.6-2.33.92-16.34,6.06-10.65,20-7.21,18.69,0,0,.1.71-.84,1.06-5.27,2-11.3-13.86,7.63-20.88,8.47-3.15,7-6.76,9.37-7.66,1.88-.69,1.83,2.91-3.79,6.39-1.91,1.78-1.28,7.23-.27,13.87,1.41-.69,2.79-1.31,4-1.74.57-.21,1,.92-.19,1.36A28.65,28.65,0,0,0,89.13,240.51Zm6.79,4.88c-2.36-6.36-2.41-11.27,0-12.16a1.24,1.24,0,0,1,1.58.81s-2.23,4.52.25,11.21C97.9,245.67,96.18,246.09,95.92,245.39Z"/><path class="cls-4" d="M81.75,274.72a7.67,7.67,0,0,1-6.29-1.7c-3.27-2.71-5-8.45-4.13-13.64.66-3.86,2.68-6.69,5.53-7.75a2.53,2.53,0,0,1,3.24,1l.54,1-1.09.41c-4.82,1.79-5.59,8.78-4,13,.59,1.6,2.38,5.16,6.36,3.7,6.72-2.5,5.06-15,3.61-26l-.12-.91a22.49,22.49,0,0,1-2.62,1.23,2.57,2.57,0,0,1-3.45-1.45,1.75,1.75,0,0,1,.86-2.35l.45-.17.34.2s.13,0,.35-.13c1-.35,2.15-.86,3.55-1.52-.5-4.79-.67-8.54-.12-11.33l-.36.14c-10.6,3.93-11.19,11-9.87,14.54.64,1.72,1.6,2.37,1.93,2.23l1.19-.44.18,1.25a2.07,2.07,0,0,1-1.5,2.17,3.9,3.9,0,0,1-3.91-.8c-2.13-1.76-3.16-5.28-2.57-8.75.56-3.3,3-9.41,13.4-13.25,5.18-1.93,6.33-4,7.17-5.42a4.28,4.28,0,0,1,2.2-2.24,1.75,1.75,0,0,1,2.3.78c.79,1.61-.74,4.69-5.19,7.44-1.39,1.32-.66,7,0,11.48,1.06-.49,2-.89,2.8-1.18a1.4,1.4,0,0,1,.63-.09c.23-2.61,1.41-3.62,2.41-4a2.27,2.27,0,0,1,1.68.07,2.34,2.34,0,0,1,1.22,1.34l.15.42-.19.39s-2,4.26.29,10.4a1.35,1.35,0,0,1-1,1.72,2,2,0,0,1-2.75-.87,31.09,31.09,0,0,1-1.67-6.22l-.25.11a20.69,20.69,0,0,0-2.78,1.43l0,.2c2,12.85,4.49,28.84-6.5,32.92A11,11,0,0,1,81.75,274.72Zm5.28-34,.5,3.82c1.35,10.21,2.86,21.6-2.15,26.44,6.68-5,4.59-18.43,2.87-29.43l-.36-2.37c-.72-4.7-1.24-8.74-.84-11.55-1,3-.56,8-.07,12.59ZM96.88,245ZM72.45,237a11.17,11.17,0,0,0-.6,2.11c-.54,3.19.58,5.78,1.85,6.83l.14.11a7.62,7.62,0,0,1-1.26-2.23A11.23,11.23,0,0,1,72.45,237Zm9.18,6.33a.91.91,0,0,0,.41-.07,15.45,15.45,0,0,0,1.44-.63l-1.46.58Zm14.68-9.07c-.78.3-1.16,1.4-1.16,3a17.89,17.89,0,0,0,.51,3.79A15.21,15.21,0,0,1,96.31,234.23ZM93,220a3.91,3.91,0,0,0-.78,1.1c-.12.21-.25.44-.39.67A5.85,5.85,0,0,0,93,220Z"/><path class="cls-4" d="M118.66,256.56c0,.38-.24,5.28-3,6.31-3.86,1.43-7-2.59-9.23-8.57-5.22-14.08-5.94-35.08-2.51-36.35.57-.21.92,0,1.15.64,0,0-.93,21,4.87,36.65,1.43,3.86,3.55,6.67,5.33,6,1.6-.59,2.3-3.2,2.37-4.3C117.66,256.33,118.61,256.14,118.66,256.56Z"/><path class="cls-4" d="M114.93,264.11c-2.49.39-6.27-.81-9.48-9.46-4.83-13-6.72-35.88-1.9-37.66a1.81,1.81,0,0,1,2.46,1.24l.07.2v.21c0,.2-.86,21,4.8,36.25,1.54,4.13,3.37,5.64,4,5.39,1-.36,1.63-2.42,1.7-3.41a1.76,1.76,0,0,1,1.71-1.56,1.29,1.29,0,0,1,1.36,1.13v.17l-1-.05,1,.06c-.07,1.39-.54,6-3.68,7.21A5.39,5.39,0,0,1,114.93,264.11Zm-10.93-45c-1.85,2.43-1.86,20.69,3.37,34.8,1.09,2.94,3.17,7.37,6,8.08-1.58-.82-3.12-3-4.38-6.42C103.63,241.23,103.9,222.74,104,219.14Z"/><path class="cls-4" d="M125.3,268.23c5.88-2.18,6.08-9.43,5.08-16.45-6.63,2.62-9.44,6.87-10.67,11.35-.16.59-1.36.66-1.21.07,1-4.45,4.28-9.84,11.66-12.9-.38-2.48-.93-5-1.32-7.16-.36-1.69-.66-3.51-.92-5.23l-.43.15c-1,6.38-2.7,13.38-5.28,14.34-8,2.95-9.25-22.33-5.06-23.89.65-.24.95.13,1.18.74,0,0-.58,13,1.76,19.33.51,1.36,1.13,2.31,2,2,2.92-1.09,4.87-21.25,5-22.46.18-2.1.68-3.52,1.85-4,.71-.26,1.15.06,1.4.72,0,0-.73,5.41,1.51,17.22.43,2.31.88,4.82,1.22,7.32,6.15-1.16,6.77,4.39,4.93,5.07A4,4,0,0,0,133.2,251c.76,7.8-.21,15.61-7.5,18.31-3.16,1.17-4.88.42-6.15-.82-.51-.51.55-1.28,1.08-.72C121.41,268.6,122.8,269.16,125.3,268.23Z"/><path class="cls-4" d="M124,270.83a5.64,5.64,0,0,1-5.17-1.61,1.46,1.46,0,0,1-.39-1.41,1.79,1.79,0,0,1,1.3-1.21,1.7,1.7,0,0,1,1.63.46c.71.75,1.91.82,3.57.21,4.07-1.51,5.54-6,4.6-14a15,15,0,0,0-8.84,10.15,1.83,1.83,0,0,1-2.21,1.18,1.32,1.32,0,0,1-1-1.64c.78-3.39,3.32-9.57,11.51-13.26-.21-1.24-.45-2.48-.68-3.67-.18-.93-.36-1.83-.51-2.7,0-.21-.09-.43-.14-.65-2,9.55-4.31,10.4-5.13,10.7a4.23,4.23,0,0,1-4.36-.74c-4-3.32-5.08-14.16-4.06-20.16.48-2.78,1.37-4.43,2.65-4.91a1.83,1.83,0,0,1,1.42,0,2.23,2.23,0,0,1,1.08,1.33l.07.2v.21c0,.12-.54,12.88,1.7,18.92.46,1.22.76,1.39.77,1.39,1.7-1.05,3.81-15.68,4.22-21.58.16-1.89.6-4.13,2.52-4.85a2,2,0,0,1,1.73.09,2.28,2.28,0,0,1,1,1.24l.08.23,0,.26c0,.05-.66,5.44,1.51,16.89.37,2,.76,4.19,1.08,6.35,3.52-.29,5.34,1.58,5.84,3.39s-.14,3.33-1.42,3.8l-1.23.46-.14-1.3a2.88,2.88,0,0,0-2.64-2.57c.73,9.94-2,15.92-8.27,18.25A10.54,10.54,0,0,1,124,270.83Zm7.21-20.49.19,1.29a30.87,30.87,0,0,1,.09,10.2c.9-2.75,1.12-6.3.69-10.73l-.16-1.56c-.33-2.46-.78-4.95-1.21-7.27-2-10.41-1.68-15.9-1.56-17.23h0c-.62.31-1,1.32-1.17,3.16,0,.09-.32,4.19-1,8.93l1.66-.61.19,1.24c.23,1.47.53,3.39.91,5.17.16.89.33,1.78.51,2.7.29,1.46.59,3,.82,4.53l0,.2Zm-11.7,13.06s0,0,0,0S119.51,263.41,119.51,263.4Zm-.79-.54Zm-1.43-33.21a6.51,6.51,0,0,0-1.13,3.15c-1,6.11.31,15.72,3.35,18.24a2.19,2.19,0,0,0,1.77.55l-.31-.11a4.09,4.09,0,0,1-1.84-2.55C117,243.1,117.21,232.05,117.29,229.65Z"/><path class="cls-4" d="M183.26,221.17c.57,5.15-1.09,11.92-7.45,14.28a8.67,8.67,0,0,1-2.33.49,15.32,15.32,0,0,1-7.94,6.91c-14.73,5.47-20.8-17.51-9.87-21.56a1.92,1.92,0,0,1,2.3,1c-9.7,3.6-6.15,23.82,6.23,19.22,2.77-1,4.84-3.24,6.45-6.14-7.84-3.52-8.92-23.47,3.74-28.17a12.16,12.16,0,0,1,3.64-.71c2-10.27,4.74-19.44,11.52-21.95a.71.71,0,0,1,1,.47,98.68,98.68,0,0,0,.5,16.8c1,8.26,3.16,18.48,5.47,24.7a.66.66,0,0,1-.41.9c-1,.38-2.09-.57-3-3.16-1.82-4.89-6.36-14.67-13.43-15.85-1.18,9.12-1.94,19-5.43,26.07a4.45,4.45,0,0,0,1.18-.28c5.74-2.13,7.24-8,6.85-12.56C182.19,221,183.21,220.6,183.26,221.17Zm-5.63-12.85a9.56,9.56,0,0,0-2.66.61c-11.11,4.12-10.29,22.08-3.6,25.23C174.61,227.44,175.86,217.54,177.63,208.32Zm2.27-1.7c4.24.62,7.61,3.92,10.11,7.6-2.85-11.26-3.6-22-2.23-26.92C182.86,190.79,181.06,198.21,179.9,206.62Z"/><path class="cls-4" d="M163.1,244.56c-6.44,1-11.09-3.21-13-8.4-2.23-6-.88-13.57,5.23-15.83a2.9,2.9,0,0,1,3.58,1.52l.52,1-1.08.4c-2.47.92-4.2,3.24-4.73,6.38-.66,3.88.62,8,3.12,10.1,1.89,1.56,4.35,1.85,7.12.82a10.91,10.91,0,0,0,5.39-4.79c-3.49-2.25-5.65-7.53-5.45-13.6.26-7.68,4.09-13.64,10.25-15.92a12,12,0,0,1,3.15-.71c1.95-9.91,4.82-19.28,12-22a1.73,1.73,0,0,1,2.35,1.08l.08.2,0,.23a98.74,98.74,0,0,0,.5,16.59c1,8.55,3.24,18.61,5.41,24.47a1.67,1.67,0,0,1-1,2.22c-1.19.45-2.91.14-4.36-3.76s-5.46-13-11.6-14.95c-.11.93-.23,1.86-.34,2.79-.86,7.11-1.75,14.43-4.09,20.32,4.28-2.2,5.49-7,5.14-11a1.68,1.68,0,0,1,.72-1.52,1.59,1.59,0,0,1,1.57-.22,1.28,1.28,0,0,1,.75,1.07c.61,5.47-1.16,12.76-8.11,15.34a9.17,9.17,0,0,1-2.08.5,16.12,16.12,0,0,1-8.19,6.9A14.43,14.43,0,0,1,163.1,244.56Zm8.67-9.08-.22.41a16.57,16.57,0,0,1-3.65,4.63,15.29,15.29,0,0,0,4.7-5.1l.71-1.39c2.92-5.87,3.9-14,4.85-21.8.13-1.1.26-2.2.4-3.29q-.48,2.55-.93,5.12c-1.32,7.39-2.68,15-5.34,20.54l-.44.92Zm4.59-25.92c-.33.09-.68.2-1,.33-4.65,1.73-7.58,6.4-7.83,12.5-.19,4.44,1.21,8.52,3.42,10.28,2.23-5.18,3.48-12.18,4.69-19Q176,211.63,176.36,209.56Zm-20.79,12.87c-4.06,1.83-5.17,6.94-4,11.52a14.46,14.46,0,0,1,0-4.64A10.43,10.43,0,0,1,155.57,222.43Zm36.08-4a49.62,49.62,0,0,1,2.4,5.45,6.23,6.23,0,0,0,1.33,2.38A126.49,126.49,0,0,1,190.06,202a101.88,101.88,0,0,1-.54-16.27l-.25.11-.5,1.79c-1.37,4.92-.45,15.78,2.23,26.39l1.43,5.66Zm-8.37,3.07v0Zm-2.23-15.74a14.4,14.4,0,0,1,6.95,4.28c-1.6-7.69-2.24-15-1.75-19.93C183.25,193.84,181.93,199.73,181.05,205.8Z"/><path class="cls-4" d="M219.49,193.75l-.1-.28c-2.51-.68-4.39-2.45-4.74-3.39a2.21,2.21,0,0,1,1.3-2.41c1.22-.45,3.24,1.8,4.46,4.24a5.13,5.13,0,0,0,3.26,0,3,3,0,0,0,1.38-.89,1.88,1.88,0,0,1-1.25,2.39,7,7,0,0,1-2.58.42c3.07,9,2.66,21.73-2,23.46-4.19,1.55-7-3.79-8.13-9.51-.92,5.9-2.58,12.84-5.07,13.77-7.16,2.65-8.68-22-4.54-23.5a.92.92,0,0,1,1.26.66s-.58,13.88,1.46,19.38c.49,1.32,1.09,1.91,1.74,1.66,2.74-1,4.61-19.65,4.61-19.65.2-1.89.66-3.25,1.42-3.52a.9.9,0,0,1,1.35.62s.78,10.9,2.84,16.46c.58,1.55,1.43,2.41,2.47,2C222.06,214.38,222.88,202.88,219.49,193.75Z"/><path class="cls-4" d="M205.54,222.7c-1.61.25-3.91-.38-5.61-5-2.37-6.38-2.68-19.24,1.18-20.68a2,2,0,0,1,2.59,1.26l.07.2v.2c0,.14-.55,13.74,1.4,19,.33.9.59,1.06.59,1.06,1.13-.83,2.92-10.39,3.77-18.8.27-2.53.95-4,2.08-4.39a1.93,1.93,0,0,1,2.67,1.23l0,.14v.14c0,.11.8,10.83,2.78,16.18a2.64,2.64,0,0,0,.93,1.43.27.27,0,0,0,.22,0c1-.36,2.11-2.74,2.33-7.1a35.55,35.55,0,0,0-2-13.3c-2.47-.82-4.44-2.59-4.91-3.86a2.74,2.74,0,0,1,.24-2.19,3.21,3.21,0,0,1,1.66-1.54c2.07-.78,4.36,2.18,5.52,4.32a3.91,3.91,0,0,0,2.2-.11,2.39,2.39,0,0,0,.93-.55l1.17-1.41.62,1.7a2.9,2.9,0,0,1-1.88,3.69,7.48,7.48,0,0,1-1.55.39c2.81,9.42,2.17,21.55-3,23.48a4.77,4.77,0,0,1-4.11-.28c-2-1.09-3.29-3.44-4.15-5.69-1.28,6.05-2.94,9.48-4.94,10.23A4.78,4.78,0,0,1,205.54,222.7Zm-3.85-23.62c-1.68.9-2.27,11.4.16,17.94.64,1.74,1.68,3.65,3.15,3.66a2.21,2.21,0,0,1-.71-.46,4.86,4.86,0,0,1-1.06-1.8C201.33,213.28,201.61,201.54,201.69,199.08Zm9.53,4.2.86,4.26c.89,4.36,2.52,7.58,4.37,8.61l.25.13a5,5,0,0,1-1.51-2.3c-1.91-5.14-2.73-14.5-2.88-16.41-.22.22-.57.86-.76,2.61C211.46,201.14,211.35,202.18,211.22,203.28Zm5.06-14.64a1.33,1.33,0,0,0-.67,1.09,6.85,6.85,0,0,0,3.92,2.71l0-.07C218.25,189.89,216.72,188.6,216.28,188.64Z"/><path class="cls-4" d="M250.93,209c1.32-.48,1.15-2.67,1.15-2.67a.76.76,0,0,1,.47-.76c.47-.18.52.39.52.39s.19,4-1.69,4.7c-2.77,1-5.63-2.63-7.52-7.71a44.57,44.57,0,0,1-1.8-6.45l-.48.17c-1.05,6-2.84,12.68-5.2,13.55-8.19,3-10.93-22.4-.57-26.24a3.91,3.91,0,0,1,4.39,1.31s.16.86-.5,1.1-1.13-.17-1.13-.17a2.47,2.47,0,0,0-2.62-.85c-6.31,2.35-3,24.21.28,23,2.54-.94,4.63-16.66,5-20.07.2-2.33.76-4.14,2-4.62.57-.21,1.06.1,1.3.76a50.89,50.89,0,0,0,3,20.14C249,208.34,250,209.37,250.93,209Z"/><path class="cls-4" d="M251,211.84c-2.92.46-5.9-2.64-8.08-8.52-.35-.93-.68-1.95-1-3-1.42,6.49-3.15,10.15-5.18,10.9a4.47,4.47,0,0,1-4.63-.8c-3.22-2.67-4.84-10.06-3.69-16.84.93-5.45,3.42-9.18,7-10.52a4.89,4.89,0,0,1,5.56,1.65,3.52,3.52,0,0,1,1.93-2,2,2,0,0,1,2.61,1.36l.08.22,0,.23a50.23,50.23,0,0,0,3,19.69c1.2,3.22,1.86,3.75,2,3.83.38-.17.51-1.12.47-1.62a1.77,1.77,0,0,1,1.13-1.81,1.39,1.39,0,0,1,1.23.11,1.56,1.56,0,0,1,.67,1.16c0,.53.16,4.82-2.35,5.75A4.05,4.05,0,0,1,251,211.84Zm-8.16-16.71.24,1.18a43.66,43.66,0,0,0,1.76,6.3c1.15,3.09,2.55,5.36,3.9,6.47a.76.76,0,0,1-.08-.11,15.12,15.12,0,0,1-2-4,51.77,51.77,0,0,1-3.11-20.3l0,0c-.28.18-1,.87-1.25,3.78-.22,1.87-.56,4.53-1,7.33Zm-10.6-6.56a17,17,0,0,0-1.78,5.33c-1,5.92.36,12.75,3,14.92a2.4,2.4,0,0,0,2.14.6c-.8-.18-1.71-1-2.53-3.2C231.53,202.19,230.5,193.76,232.22,188.57Zm4.28-2.27-.2,0c-1.64.62-2.72,3.53-2.89,7.81-.24,6.48,1.59,12.77,2.63,13.25,1.07-.73,3.08-9.54,4.2-19.23,0-.3.06-.62.1-.94l-.29.13a1.94,1.94,0,0,1-2.32-.53h0A1.56,1.56,0,0,0,236.5,186.3Z"/><path class="cls-4" d="M261.68,217.62c5.88-2.18,6.09-9.43,5.09-16.45-6.63,2.62-9.45,6.87-10.68,11.35-.16.59-1.36.66-1.21.07,1-4.45,4.28-9.83,11.66-12.89-.38-2.49-.93-5-1.32-7.17-.36-1.69-.66-3.51-.92-5.23l-.42.16c-1,6.37-2.7,13.37-5.29,14.33-8,3-9.25-22.33-5.06-23.89.66-.24,1,.13,1.18.74,0,0-.58,13,1.76,19.33.51,1.36,1.13,2.31,2,2,2.92-1.08,4.86-21.25,4.94-22.46.19-2.1.68-3.52,1.86-4,.71-.27,1.15.05,1.39.71,0,0-.73,5.41,1.52,17.22.42,2.31.87,4.82,1.21,7.32,6.16-1.16,6.78,4.39,4.94,5.08a4.06,4.06,0,0,0-4.77-3.48c.75,7.81-.21,15.61-7.51,18.31-3.15,1.18-4.88.42-6.14-.82-.51-.51.54-1.28,1.07-.72C257.8,218,259.18,218.55,261.68,217.62Z"/><path class="cls-4" d="M260.38,220.22a5.61,5.61,0,0,1-5.16-1.61,1.42,1.42,0,0,1-.39-1.41,1.78,1.78,0,0,1,1.29-1.21,1.68,1.68,0,0,1,1.63.46c.71.75,1.92.82,3.57.21,4.07-1.51,5.54-6,4.61-14a15,15,0,0,0-8.85,10.15,1.83,1.83,0,0,1-2.21,1.18,1.33,1.33,0,0,1-1-1.64c.79-3.39,3.33-9.57,11.52-13.26-.21-1.23-.45-2.46-.68-3.64-.18-.94-.36-1.85-.52-2.73,0-.21-.09-.43-.13-.65-2,9.55-4.31,10.4-5.13,10.7a4.2,4.2,0,0,1-4.36-.74c-4-3.32-5.08-14.15-4.06-20.16.47-2.78,1.36-4.43,2.64-4.91a1.85,1.85,0,0,1,1.43,0,2.26,2.26,0,0,1,1.08,1.34l.07.19v.21c0,.13-.55,12.88,1.69,18.92.46,1.22.76,1.39.78,1.39,1.7-1.05,3.8-15.68,4.21-21.58.17-1.89.6-4.13,2.52-4.85a2,2,0,0,1,1.73.09,2.19,2.19,0,0,1,1,1.24l.09.23,0,.26c0,.05-.67,5.44,1.5,16.89.36,1.94.76,4.14,1.08,6.36,3.52-.29,5.34,1.57,5.85,3.38s-.15,3.33-1.42,3.81l-1.23.45-.15-1.3a2.88,2.88,0,0,0-2.64-2.57c.74,10-2,15.92-8.26,18.26A11.32,11.32,0,0,1,260.38,220.22Zm7.22-20.48.18,1.28a30.93,30.93,0,0,1,.09,10.21,26.83,26.83,0,0,0,.7-10.74l-.16-1.56c-.34-2.51-.8-5.07-1.21-7.27-2-10.41-1.68-15.9-1.56-17.23h0c-.61.31-1,1.32-1.16,3.16,0,.09-.33,4.19-1,8.94l1.65-.62.19,1.24c.23,1.48.54,3.4.92,5.17.16.9.33,1.8.51,2.72.29,1.46.58,3,.82,4.51l0,.2Zm-11.71,13v0Zm-.79-.53Zm-1.43-33.21a6.55,6.55,0,0,0-1.12,3.15c-1,6.1.3,15.71,3.35,18.23a2.14,2.14,0,0,0,1.71.55c-.83-.24-1.53-1.13-2.1-2.66C253.35,192.49,253.59,181.44,253.67,179.05Z"/></g></g></svg>