<svg fill="#ec4899" className="w-5 h-5 mx-1" xmlns="http://www.w3.org/2000/svg" viewBox="0 0 32 32" xmlns:v="https://vecta.io/nano"><path d="M16 3C9.6 3 4.2 7.6 3.2 13.8c0 .3 0 .6.2.8.2.3.5.4.8.4h23.6c.3 0 .6-.1.8-.4.2-.2.3-.5.2-.8C27.8 7.6 22.4 3 16 3zm-4 8a.94.94 0 0 1-1 1 .94.94 0 0 1-1-1V9a.94.94 0 0 1 1-1 .94.94 0 0 1 1 1v2zm5-1a.94.94 0 0 1-1 1 .94.94 0 0 1-1-1V8a.94.94 0 0 1 1-1 .94.94 0 0 1 1 1v2zm5 1a.94.94 0 0 1-1 1 .94.94 0 0 1-1-1V9a.94.94 0 0 1 1-1 .94.94 0 0 1 1 1v2z"/><path d="M4.9 17.8c1.2.8 2.9.8 4.1 0a1.65 1.65 0 0 1 1.9 0c1.2.8 2.9.8 4.1 0a1.65 1.65 0 0 1 1.9 0c1.2.8 2.9.8 4.1 0a1.65 1.65 0 0 1 1.9 0c.6.4 1.3.6 2.1.6s1.4-.2 2.1-.6l1.5-1c.5-.3.6-.9.3-1.4s-.9-.6-1.4-.3l-1.5 1a1.65 1.65 0 0 1-1.9 0c-1.2-.8-2.9-.8-4.1 0a1.65 1.65 0 0 1-1.9 0c-1.2-.8-2.9-.8-4.1 0a1.65 1.65 0 0 1-1.9 0c-1.2-.8-2.9-.8-4.1 0a1.65 1.65 0 0 1-1.9 0l-1.5-1c-.5-.3-1.1-.2-1.4.3s-.2 1.1.3 1.4l1.4 1zM29.2 24c.5-.5.8-1.2.8-2 0-1.7-1.3-3-3-3H5c-1.7 0-3 1.3-3 3 0 .8.3 1.5.8 2h26.4zM4 25v.4c0 2 1.6 3.6 3.6 3.6h16.7c2 0 3.6-1.6 3.6-3.6V25H4z"/></svg>