<svg fill="#ec4899" className="w-5 h-5 mx-1" width="24" height="24" xmlns="http://www.w3.org/2000/svg" fill-rule="evenodd" clip-rule="evenodd"><path d="M24 24v-7h-1v-1c0-1.657-1.343-3-3-3h-13v4h-6v-7h-1v14h1v-2h22v2h1zm-23-3h22v-3h-22v3zm7-4h14v-1c0-1.105-.895-2-2-2h-12v3zm-4-5c1.104 0 2 .896 2 2s-.896 2-2 2-2-.896-2-2 .896-2 2-2zm0 1c.552 0 1 .448 1 1s-.448 1-1 1-1-.448-1-1 .448-1 1-1zm8.001-13c-3.169 0-6 2.113-6 5.003 0 1.025.37 2.032 1.023 2.812.027.916-.511 2.228-.997 3.184 1.302-.234 3.15-.754 3.989-1.268.709.173 1.388.252 2.03.252 3.542 0 5.954-2.418 5.954-4.98.001-2.906-2.851-5.003-5.999-5.003zm0 1c2.631 0 4.999 1.7 4.999 4.003 0 1.914-1.895 3.98-4.954 3.98-.913 0-1.56-.167-2.197-.322-.194.119-.604.458-2.136.908.346-1.071.316-1.586.3-2.13-.593-.709-1.012-1.369-1.012-2.436 0-2.207 2.243-4.003 5-4.003zm-.888 6h-2.291v-.492l1.251-1.815v-.01h-1.159v-.683h2.156v.527l-1.224 1.789v.011h1.267v.673zm4.047 0h-3.188v-.674l1.741-2.379v-.014h-1.712v-.933h3v.717l-1.604 2.341v.016h1.763v.926z"/></svg>